<svg width="1440" height="600" viewBox="0 0 1440 600" fill="none" xmlns="http://www.w3.org/2000/svg">
<mask id="mask0_17_2" style="mask-type:alpha" maskUnits="userSpaceOnUse" x="-75" y="0" width="1863" height="600">
<path d="M1787.03 0H-75V599.828H1787.03V0Z" fill="white"/>
</mask>
<g mask="url(#mask0_17_2)">
<path d="M1787.03 0H-75V599.828H1787.03V0Z" fill="white"/>
<g opacity="0.051">
<path opacity="0.051" d="M1760.06 401.679H1511.16V363.61H1503.57V355.76H1493.81V362.147H1484.65V382.901H1480.67V368.637H1471.23V383.317H1465.48V366.622H1460.48V383.904H1441.2V365.425H1395.15V341.049H1388.84V333.21H1367.59V350.214H1360.87V358.875H1346.3V364.98H1329.44V377.644H1316.95V388.644H1248.32V394.249H1233.37V398.037H1219.73V407.819H1177.94V401.679H1167.65V393.839H1152.79V401.242H1141.84V396.324H1123.26V404.067H1105.69V409.913H1077.27V403.272H1062.75V409.171H1031.96V402.475H1026.8V398.073H1012.16V405.052H1001.74V411.191H970.405V418.594H885.975" stroke="url(#paint0_linear_17_2)" stroke-width="2"/>
</g>
<g opacity="0.7">
<g opacity="0.7">
<g opacity="0.7">
<path opacity="0.7" d="M1331.23 384.657H1311.63V462.277H1331.23V384.657Z" fill="white"/>
<path opacity="0.7" d="M1330.28 385.605H1312.58V461.329H1330.28V385.605Z" stroke="#B6B5C9" stroke-width="2"/>
<path opacity="0.7" d="M1348.77 384.657H1329.18V462.277H1348.77V384.657Z" fill="white"/>
<path opacity="0.7" d="M1347.82 385.605H1330.13V461.329H1347.82V385.605Z" stroke="#B6B5C9" stroke-width="2"/>
<path opacity="0.7" d="M1352.14 376.685H1299.01V384.963H1352.14V376.685Z" stroke="#B6B5C9" stroke-width="2"/>
<path opacity="0.7" d="M1300.71 384.657H1313.78V462.277H1300.71V384.657Z" fill="white"/>
<path opacity="0.7" fill-rule="evenodd" clip-rule="evenodd" d="M1301.65 385.605V461.329H1312.84V385.605H1301.65Z" stroke="#B6B5C9" stroke-width="2"/>
<path opacity="0.7" d="M1322.19 432.475H1320.3V450.939H1322.19V432.475Z" fill="#373737"/>
<path opacity="0.7" d="M1340.44 432.475H1338.54V450.939H1340.44V432.475Z" fill="#373737"/>
<g opacity="0.7">
<path opacity="0.7" d="M1316.15 410.028L1319.76 401.646C1320.01 401.039 1320.72 400.758 1321.32 401.019C1321.61 401.139 1321.82 401.362 1321.95 401.642L1325.57 410.028V433.39H1316.15V410.028Z" fill="white"/>
<path opacity="0.7" fill-rule="evenodd" clip-rule="evenodd" d="M1317.1 410.223V432.443H1324.62V410.224L1321.08 402.018C1321.05 401.961 1321 401.915 1320.95 401.89C1320.82 401.835 1320.68 401.894 1320.62 402.019L1317.1 410.223Z" stroke="#B6B5C9" stroke-width="2"/>
</g>
<g opacity="0.7">
<path opacity="0.7" d="M1334.46 410.028L1338.05 401.646C1338.32 401.039 1339.01 400.758 1339.62 401.019C1339.9 401.139 1340.13 401.362 1340.25 401.642L1343.87 410.028V433.39H1334.46V410.028Z" fill="white"/>
<path opacity="0.7" fill-rule="evenodd" clip-rule="evenodd" d="M1335.4 410.223V432.443H1342.92V410.224L1339.38 402.018C1339.35 401.961 1339.3 401.915 1339.25 401.89C1339.13 401.835 1338.97 401.894 1338.92 402.019L1335.4 410.223Z" stroke="#B6B5C9" stroke-width="2"/>
</g>
</g>
<path opacity="0.7" d="M1313.32 376.711C1313.32 384.133 1313.84 391.32 1314.81 398.148C1319.73 432.454 1336.19 457.665 1355.73 457.665C1379.16 457.665 1398.15 421.42 1398.15 376.711C1398.15 375.267 1398.14 373.832 1398.1 372.405" stroke="#B6B5C9" stroke-width="2"/>
<path opacity="0.7" d="M1347.78 376.711C1347.78 384.133 1348.3 391.32 1349.28 398.148C1354.2 432.454 1370.66 457.665 1390.2 457.665C1413.63 457.665 1432.62 421.42 1432.62 376.711C1432.62 375.267 1432.61 373.832 1432.57 372.405" stroke="#B6B5C9" stroke-width="2"/>
<g opacity="0.7">
<g opacity="0.7">
<path opacity="0.7" d="M1307.54 367.667H1305.65V376.196H1307.54V367.667Z" fill="#B6B5C9"/>
<path opacity="0.7" d="M1312.28 367.667H1305.65V372.358H1312.28V367.667Z" fill="white"/>
<path opacity="0.7" d="M1311.33 368.615H1306.59V371.41H1311.33V368.615Z" stroke="#B6B5C9" stroke-width="2"/>
</g>
<g opacity="0.7">
<path opacity="0.7" d="M1346.39 367.667H1344.49V376.196H1346.39V367.667Z" fill="#B6B5C9"/>
<path opacity="0.7" d="M1351.13 367.667H1344.49V372.358H1351.13V367.667Z" fill="white"/>
<path opacity="0.7" d="M1350.18 368.615H1345.44V371.41H1350.18V368.615Z" stroke="#B6B5C9" stroke-width="2"/>
</g>
<g opacity="0.7">
<path opacity="0.7" d="M1326.03 364.824H1324.13V376.196H1326.03V364.824Z" fill="#B6B5C9"/>
<path opacity="0.7" d="M1333.13 364.824H1324.13V371.079H1333.13V364.824Z" fill="white"/>
<path opacity="0.7" d="M1332.18 365.772H1325.08V370.132H1332.18V365.772Z" stroke="#B6B5C9" stroke-width="2"/>
</g>
</g>
</g>
<g opacity="0.7">
<path opacity="0.7" d="M1460.37 321.009H1416.47V504.12H1460.37V321.009Z" fill="white"/>
<path opacity="0.7" d="M1459.42 321.956H1417.42V503.173H1459.42V321.956Z" stroke="#373737" stroke-width="2"/>
<path opacity="0.7" d="M1510.33 301.335H1386.19V324.035H1510.33V301.335Z" fill="white"/>
<path opacity="0.7" d="M1509.38 302.284H1387.14V323.087H1509.38V302.284Z" stroke="#424174" stroke-opacity="0.6" stroke-width="2"/>
<g opacity="0.7">
<g opacity="0.7">
<path opacity="0.7" d="M1407.99 286.173H1406.09V303.23H1407.99V286.173Z" fill="#8E8DAC"/>
<path opacity="0.7" d="M1419.35 286.173H1406.09V295.556H1419.35V286.173Z" fill="white"/>
<path opacity="0.7" d="M1418.41 287.122H1407.04V294.608H1418.41V287.122Z" stroke="#424174" stroke-opacity="0.6" stroke-width="2"/>
</g>
</g>
<path opacity="0.7" d="M1420.25 322.484H1392.25V504.12H1420.25V322.484Z" fill="white"/>
<path opacity="0.7" d="M1419.3 323.432H1393.19V503.173H1419.3V323.432Z" stroke="#424174" stroke-opacity="0.6" stroke-width="2"/>
<path opacity="0.7" d="M1421.25 301.335H1419.35V323.28H1421.25V301.335Z" fill="#8E8DAC"/>
<path opacity="0.7" d="M1438.42 430.725H1436.91V502.608H1438.42V430.725Z" fill="#7A7A9D"/>
<g opacity="0.7">
<path opacity="0.7" d="M1426.94 368.899L1436.08 343.237C1436.35 342.448 1437.23 342.037 1438.01 342.318C1438.44 342.47 1438.77 342.806 1438.92 343.234L1448.13 368.899V432.309H1426.94V368.899Z" fill="white"/>
<path opacity="0.7" fill-rule="evenodd" clip-rule="evenodd" d="M1427.89 369.062V431.361H1447.19V369.063L1438.04 343.554C1437.97 343.394 1437.85 343.267 1437.7 343.21C1437.39 343.105 1437.08 343.259 1436.96 343.556L1427.89 369.062Z" stroke="#424174" stroke-opacity="0.6" stroke-width="2"/>
</g>
<path opacity="0.7" d="M1419.35 323.534C1419.35 336.092 1420.25 348.257 1421.91 359.811C1430.29 417.867 1458.28 460.532 1491.52 460.532" stroke="#8E8DAC" stroke-width="2"/>
</g>
</g>
<g opacity="0.2">
<path opacity="0.302" d="M59.0418 399.784H146.852V361.715H154.441V353.865H164.2V360.252H173.372V381.006H177.337V366.742H186.79V381.422H192.525V364.727H197.533V382.009H216.811V363.53H262.858V339.154H269.171V331.315H290.418V348.319H297.135V356.98H311.711V363.085H328.573V375.749H341.06V386.749H409.699V392.354H424.639V396.142H438.276V405.924H480.072V399.784H490.361V391.944H505.227V399.347H516.176V394.429H534.747V402.172H552.32V408.018H580.74V401.377H595.266V407.276H626.054V400.58H631.21V396.178H645.851V403.157H656.273V409.296H687.608V416.699H772.038" stroke="url(#paint1_linear_17_2)" stroke-width="2"/>
<g opacity="0.2">
<path opacity="0.2" fill-rule="evenodd" clip-rule="evenodd" d="M357.009 352.452H366.052V345.31C366.052 342.813 364.028 340.789 361.53 340.789C359.033 340.789 357.009 342.813 357.009 345.31V352.452Z" stroke="#373737" stroke-width="2.24"/>
<path opacity="0.2" d="M361.796 347.681C365.908 347.681 369.241 351.014 369.241 355.124V360.406H354.352V355.124C354.352 351.014 357.685 347.681 361.796 347.681Z" fill="white"/>
<path opacity="0.2" fill-rule="evenodd" clip-rule="evenodd" d="M355.414 359.346H368.179V355.125C368.179 351.6 365.322 348.743 361.796 348.743C358.271 348.743 355.414 351.6 355.414 355.125V359.346Z" stroke="#373737" stroke-width="2.24"/>
<path opacity="0.2" d="M360.184 355.104H363.628C368.61 355.104 372.649 359.143 372.649 364.125V456.378H351.162V364.125C351.162 359.143 355.201 355.104 360.184 355.104Z" fill="white"/>
<path opacity="0.2" fill-rule="evenodd" clip-rule="evenodd" d="M352.224 455.318H371.589V364.125C371.589 359.729 368.024 356.166 363.628 356.166H360.184C355.787 356.166 352.224 359.729 352.224 364.125V455.318Z" stroke="#373737" stroke-width="2.24"/>
<path opacity="0.2" d="M343.719 435.17H335.743V456.38H343.719V435.17Z" fill="white"/>
<path opacity="0.2" d="M342.657 436.232H336.805V455.318H342.657V436.232Z" stroke="#373737" stroke-width="2.24"/>
<path opacity="0.2" d="M352.758 394.871H344.782V456.378H352.758V394.871Z" fill="white"/>
<path opacity="0.2" d="M351.696 395.933H345.844V455.318H351.696V395.933Z" stroke="#373737" stroke-width="2.24"/>
<path opacity="0.2" d="M379.342 394.871H371.367V456.378H379.342V394.871Z" fill="white"/>
<path opacity="0.2" d="M378.281 395.933H372.429V455.318H378.281V395.933Z" stroke="#373737" stroke-width="2.24"/>
<path opacity="0.2" d="M387.317 435.17H379.342V456.38H387.317V435.17Z" fill="white"/>
<path opacity="0.2" d="M386.256 436.232H380.404V455.318H386.256V436.232Z" stroke="#373737" stroke-width="2.24"/>
<g opacity="0.2">
<path opacity="0.2" d="M352.442 424.565H341.591V456.378H352.442V424.565Z" fill="white"/>
<path opacity="0.2" d="M351.38 425.625H342.653V455.316H351.38V425.625Z" stroke="#373737" stroke-width="2.24"/>
</g>
<g opacity="0.2">
<path opacity="0.2" d="M382.217 424.565H371.367V456.378H382.217V424.565Z" fill="white"/>
<path opacity="0.2" d="M381.156 425.625H372.428V455.316H381.156V425.625Z" stroke="#373737" stroke-width="2.24"/>
</g>
<g opacity="0.2">
<path opacity="0.2" d="M374.025 374.723H350.1V456.378H374.025V374.723Z" fill="white"/>
<path opacity="0.2" d="M372.965 375.784H351.161V455.318H372.965V375.784Z" stroke="#373737" stroke-width="2.24"/>
</g>
<g opacity="0.2">
<path opacity="0.2" d="M362.062 360.937C365.146 360.937 367.644 363.437 367.644 366.52V456.379H356.48V366.52C356.48 363.437 358.978 360.937 362.062 360.937Z" fill="white"/>
<path opacity="0.2" fill-rule="evenodd" clip-rule="evenodd" d="M357.541 455.318H366.584V366.519C366.584 364.023 364.56 361.999 362.062 361.999C359.565 361.999 357.541 364.023 357.541 366.519V455.318Z" stroke="#373737" stroke-width="2.24"/>
</g>
<path opacity="0.2" d="M362.86 327.003H360.733V341.849H362.86V327.003Z" fill="#373737"/>
</g>
<path opacity="0.2" d="M534.304 454.846H148.633V455.794H534.304V454.846Z" stroke="#373737" stroke-width="2"/>
<path opacity="0.2" d="M573.156 454.846H546.623V455.794H573.156V454.846Z" stroke="#373737" stroke-width="2"/>
<path opacity="0.2" d="M601.584 454.846H594.003V455.794H601.584V454.846Z" stroke="#373737" stroke-width="2"/>
<g opacity="0.2">
<path opacity="0.2" d="M777.437 516.996H707.714V518.892H777.437V516.996Z" fill="#373737"/>
<path opacity="0.2" d="M859.329 516.996H811.95V518.892H859.329V516.996Z" fill="#373737"/>
<path opacity="0.2" d="M783.522 545.424H764.57V547.32H783.522V545.424Z" fill="#373737"/>
<path opacity="0.2" d="M897.233 564.376H859.329V566.272H897.233V564.376Z" fill="#373737"/>
<path opacity="0.2" d="M631.906 488.568H594.003V490.465H631.906V488.568Z" fill="#373737"/>
<path opacity="0.2" d="M1029.9 488.568H991.993V490.465H1029.9V488.568Z" fill="#373737"/>
</g>
<path opacity="0.2" d="M1187.2 454.846H1075.38V455.794H1187.2V454.846Z" stroke="#373737" stroke-width="2"/>
<path opacity="0.2" d="M1058.32 454.846H1041.27V455.794H1058.32V454.846Z" stroke="#373737" stroke-width="2"/>
<path opacity="0.2" d="M1029.9 454.846H1022.32V455.794H1029.9V454.846Z" stroke="#373737" stroke-width="2"/>
<path opacity="0.2" d="M1010.94 454.846H1003.36V455.794H1010.94V454.846Z" stroke="#373737" stroke-width="2"/>
<g opacity="0.2">
<path opacity="0.2" d="M287.78 322.759H313.143L321.838 455.854H277.31L287.78 322.759Z" fill="white"/>
<path opacity="0.2" fill-rule="evenodd" clip-rule="evenodd" d="M288.761 323.821L278.458 454.794H320.706L312.148 323.821H288.761Z" stroke="#373737" stroke-width="2.24"/>
<path opacity="0.2" fill-rule="evenodd" clip-rule="evenodd" d="M288.906 323.821L295.103 427.172H304.534L311.633 323.821H288.906Z" stroke="#373737" stroke-width="2.24"/>
<path opacity="0.2" d="M324.467 434.639H310.643V455.848H324.467V434.639Z" fill="white"/>
<path opacity="0.2" d="M323.406 435.701H311.704V454.787H323.406V435.701Z" stroke="#373737" stroke-width="2.24"/>
<path opacity="0.2" d="M320.215 439.942H315.427V454.787H320.215V439.942Z" stroke="#373737" stroke-width="2.24"/>
<path opacity="0.2" d="M290.971 434.639H277.146V455.848H290.971V434.639Z" fill="white"/>
<path opacity="0.2" d="M289.909 435.701H278.208V454.787H289.909V435.701Z" stroke="#373737" stroke-width="2.24"/>
<path opacity="0.2" d="M312.237 425.625H288.843V448.425H312.237V425.625Z" fill="white"/>
<path opacity="0.2" d="M311.176 426.686H289.904V447.363H311.176V426.686Z" stroke="#373737" stroke-width="2.24"/>
<path opacity="0.2" d="M306.924 433.58H294.158V447.365H306.924V433.58Z" stroke="#373737" stroke-width="2.24"/>
<path opacity="0.2" d="M286.719 439.942H281.929V454.787H286.719V439.942Z" stroke="#373737" stroke-width="2.24"/>
<g opacity="0.2">
<path opacity="0.2" d="M307.985 315.867H293.096V322.759H307.985V315.867Z" fill="white"/>
<path opacity="0.2" d="M306.923 316.928H294.158V321.697H306.923V316.928Z" stroke="#373737" stroke-width="2.24"/>
</g>
<g opacity="0.2">
<path opacity="0.2" d="M310.111 319.578H290.971V324.881H310.111V319.578Z" fill="white"/>
<path opacity="0.2" d="M309.051 320.639H292.032V323.82H309.051V320.639Z" stroke="#373737" stroke-width="2.24"/>
</g>
<g opacity="0.2">
<path opacity="0.2" d="M300.554 297.839L306.52 317.925H294.747L300.554 297.839Z" fill="white"/>
<path opacity="0.2" fill-rule="evenodd" clip-rule="evenodd" d="M300.568 301.613L296.16 316.863H305.099L300.568 301.613Z" stroke="#373737" stroke-width="2.24"/>
</g>
<g opacity="0.2">
<path opacity="0.2" d="M301.604 286.173H299.477V304.732H301.604V286.173Z" fill="#373737"/>
<path opacity="0.2" d="M301.338 286.439H299.742V304.466H301.338V286.439Z" stroke="#373737" stroke-width="0.56"/>
</g>
</g>
<g opacity="0.2">
<path opacity="0.2" d="M483.128 397.271H472.08V415.304H483.128V397.271Z" fill="white"/>
<path opacity="0.2" d="M482.066 398.332H473.142V414.242H482.066V398.332Z" stroke="#373737" stroke-width="2.24"/>
<path opacity="0.2" d="M479.781 400.944H456.013V456.044H479.781V400.944Z" fill="white"/>
<path opacity="0.2" d="M478.719 402.005H457.072V454.983H478.719V402.005Z" stroke="#373737" stroke-width="2.24"/>
<path opacity="0.2" fill-rule="evenodd" clip-rule="evenodd" d="M460.756 398.332V401.933H472.358V398.332H460.756ZM462.095 394.992V398.184H471.02V394.992H462.095Z" stroke="#373737" stroke-width="2.24"/>
<path opacity="0.2" d="M485.137 412.966H467.394V431.333H485.137V412.966Z" fill="white"/>
<path opacity="0.2" d="M484.075 414.028H468.454V430.272H484.075V414.028Z" stroke="#373737" stroke-width="2.24"/>
<path opacity="0.2" d="M469.403 429.663H488.819V455.744H469.403V429.663Z" fill="white"/>
<path opacity="0.2" fill-rule="evenodd" clip-rule="evenodd" d="M470.465 430.724V454.684H487.758V430.724H470.465Z" stroke="#373737" stroke-width="2.24"/>
<path opacity="0.2" d="M469.236 455.744H463.711H452.663V407.289H468.733V416.639H474.758V423.986H478.106V455.744H469.236Z" fill="white"/>
<path opacity="0.2" fill-rule="evenodd" clip-rule="evenodd" d="M477.046 454.684V425.048H473.697V417.701H467.671V408.351H453.725V454.684H477.046Z" stroke="#373737" stroke-width="2.24"/>
<path opacity="0.2" d="M467.392 386.919H465.719V391.928H467.392V386.919Z" fill="#373737"/>
<g opacity="0.2">
<path opacity="0.2" d="M468.733 391.16H464.381V395.267H468.733V391.16Z" fill="white"/>
<path opacity="0.2" d="M467.672 392.22H465.442V394.205H467.672V392.22Z" stroke="#373737" stroke-width="2.24"/>
</g>
<g opacity="0.2">
<path opacity="0.2" d="M473.754 437.678H457.015V456.046H473.754V437.678Z" fill="white"/>
<path opacity="0.2" d="M472.692 438.739H458.077V454.985H472.692V438.739Z" stroke="#373737" stroke-width="2.24"/>
</g>
<g opacity="0.2">
<path opacity="0.2" d="M473.754 437.678H457.015V442.687H473.754V437.678Z" fill="white"/>
<path opacity="0.2" d="M472.692 438.739H458.077V441.625H472.692V438.739Z" stroke="#373737" stroke-width="2.24"/>
</g>
<g opacity="0.2">
<path opacity="0.2" d="M473.754 451.035H457.015V456.044H473.754V451.035Z" fill="white"/>
<path opacity="0.2" d="M472.692 452.096H458.077V454.984H472.692V452.096Z" stroke="#373737" stroke-width="2.24"/>
</g>
<g opacity="0.2">
<path opacity="0.2" d="M469.404 444.023H461.704V452.371H469.404V444.023Z" fill="white"/>
<path opacity="0.2" d="M468.342 445.085H462.765V451.31H468.342V445.085Z" stroke="#373737" stroke-width="2.24"/>
</g>
</g>
<g opacity="0.2">
<path opacity="0.2" d="M439.997 384.267H406.501V456.38H439.997V384.267Z" fill="white"/>
<path opacity="0.2" d="M438.937 385.328H407.562V455.318H438.937V385.328Z" stroke="#373737" stroke-width="2.24"/>
<path opacity="0.2" d="M417.667 430.397H402.247V456.378H417.667V430.397Z" fill="white"/>
<path opacity="0.2" d="M416.605 431.458H403.309V455.316H416.605V431.458Z" stroke="#373737" stroke-width="2.24"/>
<path opacity="0.2" d="M444.252 430.397H428.832V456.378H444.252V430.397Z" fill="white"/>
<path opacity="0.2" d="M443.19 431.458H429.893V455.316H443.19V431.458Z" stroke="#373737" stroke-width="2.24"/>
<path opacity="0.2" d="M412.881 357.756H433.086V386.506H412.881V357.756Z" fill="white"/>
<path opacity="0.2" fill-rule="evenodd" clip-rule="evenodd" d="M413.943 358.816V385.444H432.024V358.816H413.943Z" stroke="#373737" stroke-width="2.24"/>
<g opacity="0.2">
<path opacity="0.2" fill-rule="evenodd" clip-rule="evenodd" d="M411.853 426.905V368.718H421.013V421.603H425.267V368.718H434.202V426.905" fill="white"/>
<path opacity="0.2" d="M411.853 426.905V368.718H421.013V421.603H425.267V368.718H434.202V426.905" stroke="#373737" stroke-width="2.24"/>
</g>
<path opacity="0.2" d="M415.008 353.514H430.958V359.876H415.008V353.514Z" fill="white"/>
<path opacity="0.2" fill-rule="evenodd" clip-rule="evenodd" d="M416.07 354.575V358.815H429.897V354.575H416.07Z" stroke="#373737" stroke-width="2.24"/>
<path opacity="0.2" d="M425.11 331.243H420.857V333.364H425.11V331.243Z" fill="#373737"/>
<path opacity="0.2" d="M424.047 319.578H421.92V338.667H424.047V319.578Z" fill="#373737"/>
<g opacity="0.2">
<path opacity="0.2" d="M429.363 348.742H416.604V357.225H429.363V348.742Z" fill="white"/>
<path opacity="0.2" d="M428.302 349.802H417.664V356.164H428.302V349.802Z" stroke="#373737" stroke-width="2.24"/>
</g>
<g opacity="0.2">
<path opacity="0.2" d="M422.983 337.076C424.745 337.076 426.173 338.505 426.173 340.267V346.62H419.794V340.267C419.794 338.505 421.221 337.076 422.983 337.076Z" fill="white"/>
<path opacity="0.2" fill-rule="evenodd" clip-rule="evenodd" d="M420.856 345.559H425.112V340.266C425.112 339.091 424.159 338.138 422.983 338.138C421.809 338.138 420.856 339.091 420.856 340.266V345.559Z" stroke="#373737" stroke-width="2.24"/>
</g>
<g opacity="0.2">
<path opacity="0.2" d="M420.852 342.909H425.114C426.286 342.909 427.237 343.859 427.237 345.032V350.862H418.729V345.032C418.729 343.859 419.68 342.909 420.852 342.909Z" fill="white"/>
<path opacity="0.2" fill-rule="evenodd" clip-rule="evenodd" d="M419.791 349.801H426.176V345.032C426.176 344.445 425.7 343.969 425.114 343.969H420.852C420.266 343.969 419.791 344.445 419.791 345.032V349.801Z" stroke="#373737" stroke-width="2.24"/>
</g>
</g>
</g>
<g filter="url(#filter0_f_17_2)">
<path fill-rule="evenodd" clip-rule="evenodd" d="M1510.84 598.104V453.761H1377.22V428.024L1353.57 427.291L1340.59 408.638L1318.85 436.347H1302.49V426.956H1290.87V402.994L1274.96 387.076L1256.81 405.227V420.43H1191.25V487.303H1177.7V478.698H1135.88V467.457L1122.34 456.341L1108.8 470.203V486.746H1102.17V598.037" fill="white"/>
</g>
<g filter="url(#filter1_f_17_2)">
<path fill-rule="evenodd" clip-rule="evenodd" d="M214.452 401.638H315.072L349.018 373.184L375.462 397.258L365.719 398.511L365.756 420.184L360.689 424.627L365.719 436.466H375.462L376.156 426.882H394.18L395.3 434.566L407.385 434.803L408.715 441.572H425.054H436.864V424.118H454.642V412.195L469.811 421.167L526.637 418.765L528.549 477.087H621.599V596.758L216.689 597.644L214.452 401.638Z" fill="white"/>
</g>
<path d="M316.356 561.924H307.828V563.819H316.356V561.924Z" fill="#373737"/>
<path d="M316.357 405.571H220.649V599.828H316.357V405.571Z" fill="white"/>
<path d="M315.409 406.519H221.598V598.881H315.409V406.519Z" stroke="#373737" stroke-width="2"/>
<path d="M284.138 561.924H220.649V563.819H284.138V561.924Z" fill="#373737"/>
<path d="M319.2 405.571H218.754V414.1H319.2V405.571Z" fill="white"/>
<path d="M318.252 406.519H219.701V413.152H318.252V406.519Z" stroke="#373737" stroke-width="2"/>
<path d="M320.147 459.583H220.649V468.113H320.147V459.583Z" fill="white"/>
<path d="M319.199 460.532H221.598V467.165H319.199V460.532Z" stroke="#373737" stroke-width="2"/>
<path d="M320.147 510.754H220.649V519.282H320.147V510.754Z" fill="white"/>
<path d="M319.199 511.701H221.598V518.335H319.199V511.701Z" stroke="#373737" stroke-width="2"/>
<path d="M243.391 527.811H228.23V533.98H243.391V527.811Z" fill="white"/>
<path d="M242.444 528.758H229.177V533.032H242.444V528.758Z" stroke="#373737" stroke-width="2"/>
<path d="M243.391 550.553H228.23V552.448H243.391V550.553Z" fill="#373737"/>
<path fill-rule="evenodd" clip-rule="evenodd" d="M230.125 532.549V551.251H241.015V532.549H230.125Z" stroke="#373737" stroke-width="2"/>
<path d="M243.391 476.641H228.23V482.81H243.391V476.641Z" fill="white"/>
<path d="M242.444 477.589H229.177V481.862H242.444V477.589Z" stroke="#373737" stroke-width="2"/>
<path d="M243.391 499.384H228.23V501.278H243.391V499.384Z" fill="#373737"/>
<path fill-rule="evenodd" clip-rule="evenodd" d="M230.125 481.379V500.08H241.015V481.379H230.125Z" stroke="#373737" stroke-width="2"/>
<path d="M243.391 427.366H228.23V433.534H243.391V427.366Z" fill="white"/>
<path d="M242.444 428.313H229.177V432.587H242.444V428.313Z" stroke="#373737" stroke-width="2"/>
<path d="M243.391 450.108H228.23V452.003H243.391V450.108Z" fill="#373737"/>
<path fill-rule="evenodd" clip-rule="evenodd" d="M230.125 432.104V450.805H241.015V432.104H230.125Z" stroke="#373737" stroke-width="2"/>
<path d="M268.977 427.366H257.605V433.534H268.977V427.366Z" fill="white"/>
<path d="M268.029 428.313H258.553V432.587H268.029V428.313Z" stroke="#373737" stroke-width="2"/>
<path d="M268.977 450.108H257.605V452.003H268.977V450.108Z" fill="#373737"/>
<path fill-rule="evenodd" clip-rule="evenodd" d="M259.5 432.104V450.805H267.081V432.104H259.5Z" stroke="#373737" stroke-width="2"/>
<path d="M268.977 476.641H257.605V482.81H268.977V476.641Z" fill="white"/>
<path d="M268.029 477.589H258.553V481.862H268.029V477.589Z" stroke="#373737" stroke-width="2"/>
<path d="M268.977 499.384H257.605V501.278H268.977V499.384Z" fill="#373737"/>
<path fill-rule="evenodd" clip-rule="evenodd" d="M259.5 481.379V500.08H267.081V481.379H259.5Z" stroke="#373737" stroke-width="2"/>
<path d="M268.977 527.811H257.605V533.98H268.977V527.811Z" fill="white"/>
<path d="M268.029 528.758H258.553V533.032H268.029V528.758Z" stroke="#373737" stroke-width="2"/>
<path d="M268.977 550.553H257.605V552.448H268.977V550.553Z" fill="#373737"/>
<path fill-rule="evenodd" clip-rule="evenodd" d="M259.5 532.549V551.251H267.081V532.549H259.5Z" stroke="#373737" stroke-width="2"/>
<path d="M303.09 427.366H287.929V433.534H303.09V427.366Z" fill="white"/>
<path d="M302.143 428.313H288.876V432.587H302.143V428.313Z" stroke="#373737" stroke-width="2"/>
<path d="M303.09 450.108H287.929V452.003H303.09V450.108Z" fill="#373737"/>
<path fill-rule="evenodd" clip-rule="evenodd" d="M289.824 432.104V450.805H300.714V432.104H289.824Z" stroke="#373737" stroke-width="2"/>
<path d="M304.038 476.641H288.876V482.81H304.038V476.641Z" fill="white"/>
<path d="M303.09 477.589H289.824V481.862H303.09V477.589Z" stroke="#373737" stroke-width="2"/>
<path d="M304.038 499.384H288.876V501.278H304.038V499.384Z" fill="#373737"/>
<path fill-rule="evenodd" clip-rule="evenodd" d="M290.771 481.379V500.08H301.661V481.379H290.771Z" stroke="#373737" stroke-width="2"/>
<path d="M308.776 528.758H283.191V598.881H308.776V528.758Z" stroke="#373737" stroke-width="2"/>
<path d="M304.038 533.496H287.928V568.557H304.038V533.496Z" stroke="#373737" stroke-width="2"/>
<path d="M308.776 567.61H284.138V569.505H308.776V567.61Z" fill="#373737"/>
<path d="M308.776 572.348H284.138V574.243H308.776V572.348Z" fill="#373737"/>
<path d="M308.776 578.033H284.138V579.929H308.776V578.033Z" fill="#373737"/>
<path d="M308.776 582.771H284.138V584.667H308.776V582.771Z" fill="#373737"/>
<path d="M308.776 588.457H284.138V590.352H308.776V588.457Z" fill="#373737"/>
<path d="M308.776 593.195H284.138V595.09H308.776V593.195Z" fill="#373737"/>
<path d="M260.448 571.4H245.825V583.719H260.448V571.4Z" stroke="#373737" stroke-width="2"/>
<path d="M261.396 576.138H245.286V578.033H261.396V576.138Z" fill="#D8D8D8"/>
<path d="M260.921 576.611H245.761V577.56H260.921V576.611Z" stroke="#373737"/>
<path d="M250.972 412.204H249.077V563.819H250.972V412.204Z" fill="#D8D8D8"/>
<path d="M250.499 412.679H249.551V563.346H250.499V412.679Z" stroke="#373737"/>
<path d="M277.505 412.204H275.61V598.881H277.505V412.204Z" fill="#D8D8D8"/>
<path d="M277.032 412.679H276.083V598.406H277.032V412.679Z" stroke="#373737"/>
<path d="M403.535 494.646H330.571V598.881H403.535V494.646Z" stroke="#373737" stroke-width="2"/>
<path d="M438.596 450.108H329.623V599.828H438.596V450.108Z" fill="white"/>
<path d="M437.649 451.056H330.571V598.881H437.649V451.056Z" stroke="#373737" stroke-width="2"/>
<path d="M404.484 493.698H329.623V599.828H404.484V493.698Z" fill="white"/>
<path d="M403.535 494.646H330.571V598.881H403.535V494.646Z" stroke="#373737" stroke-width="2"/>
<path d="M440.491 449.161H326.78V457.689H440.491V449.161Z" fill="white"/>
<path d="M439.544 450.108H327.728V456.742H439.544V450.108Z" stroke="#373737" stroke-width="2"/>
<path d="M391.216 437.789H401.64V451.056H389.321H369.421V441.58H377.002V439.685V431.156H391.216V437.789Z" fill="white"/>
<path fill-rule="evenodd" clip-rule="evenodd" d="M390.268 432.104H377.951V442.527H370.37V450.108H400.692V438.737H390.268V432.104Z" stroke="#373737" stroke-width="2"/>
<path d="M440.491 478.536H326.78V487.065H440.491V478.536Z" fill="white"/>
<path d="M439.544 479.484H327.728V486.116H439.544V479.484Z" stroke="#373737" stroke-width="2"/>
<path d="M343.079 489.906H325.833V498.436H408.273V489.906H391.975L367.527 481.379L343.079 489.906Z" fill="white"/>
<path fill-rule="evenodd" clip-rule="evenodd" d="M326.78 490.854V497.487H407.325V490.854H391.814L367.527 482.382L343.239 490.854H326.78Z" stroke="#373737" stroke-width="2"/>
<path d="M328.675 542.025H404.995V548.658H328.675V542.025Z" fill="white"/>
<path fill-rule="evenodd" clip-rule="evenodd" d="M329.623 542.972V547.71H404.047V542.972H329.623Z" stroke="#373737" stroke-width="2"/>
<path d="M433.858 532.549H408.273V598.881H433.858V532.549Z" stroke="#373737" stroke-width="2"/>
<path d="M429.121 537.287H413.011V572.348H429.121V537.287Z" stroke="#373737" stroke-width="2"/>
<path d="M433.858 571.4H409.222V573.295H433.858V571.4Z" fill="#373737"/>
<path d="M433.858 576.138H409.222V578.033H433.858V576.138Z" fill="#373737"/>
<path d="M433.858 581.824H409.222V583.719H433.858V581.824Z" fill="#373737"/>
<path d="M433.858 586.562H409.222V588.457H433.858V586.562Z" fill="#373737"/>
<path d="M433.858 592.247H409.222V594.143H433.858V592.247Z" fill="#373737"/>
<path d="M349.523 462.427H342.888V472.851H349.523V462.427Z" fill="white"/>
<path d="M348.575 463.375H343.837V471.903H348.575V463.375Z" stroke="#373737" stroke-width="2"/>
<path d="M364.685 462.427H358.051V472.851H364.685V462.427Z" fill="white"/>
<path d="M363.737 463.375H358.999V471.903H363.737V463.375Z" stroke="#373737" stroke-width="2"/>
<path d="M379.846 462.427H373.213V472.851H379.846V462.427Z" fill="white"/>
<path d="M378.897 463.375H374.159V471.903H378.897V463.375Z" stroke="#373737" stroke-width="2"/>
<path d="M395.008 462.427H388.373V472.851H395.008V462.427Z" fill="white"/>
<path d="M394.059 463.375H389.321V471.903H394.059V463.375Z" stroke="#373737" stroke-width="2"/>
<path d="M410.168 462.427H403.535V472.851H410.168V462.427Z" fill="white"/>
<path d="M409.221 463.375H404.484V471.903H409.221V463.375Z" stroke="#373737" stroke-width="2"/>
<path d="M425.33 462.427H418.697V472.851H425.33V462.427Z" fill="white"/>
<path d="M424.382 463.375H419.644V471.903H424.382V463.375Z" stroke="#373737" stroke-width="2"/>
<path d="M418.698 445.37H403.535V451.056H418.698V445.37Z" fill="white"/>
<path d="M417.749 446.318H404.484V450.108H417.749V446.318Z" stroke="#373737" stroke-width="2"/>
<path d="M431.015 441.58H423.436V451.056H431.015V441.58Z" fill="white"/>
<path d="M430.068 442.527H424.384V450.108H430.068V442.527Z" stroke="#373737" stroke-width="2"/>
<path d="M428.172 435.894H426.277V443.475H428.172V435.894Z" fill="#373737"/>
<path d="M425.33 493.698H414.906V525.915H425.33V493.698Z" fill="white"/>
<path d="M424.382 494.646H415.854V524.968H424.382V494.646Z" stroke="#373737" stroke-width="2"/>
<path d="M427.225 524.02H413.011V525.915H427.225V524.02Z" fill="#373737"/>
<path d="M427.225 488.96H413.011V495.592H427.225V488.96Z" fill="white"/>
<path d="M426.277 489.908H413.958V494.646H426.277V489.908Z" stroke="#373737" stroke-width="2"/>
<path d="M349.523 502.225H339.1V508.859H349.523V502.225Z" fill="white"/>
<path d="M348.575 503.173H340.047V507.911H348.575V503.173Z" stroke="#373737" stroke-width="2"/>
<path d="M347.626 506.963H340.994V538.234H347.626V506.963Z" fill="white"/>
<path d="M346.68 507.911H341.942V537.287H346.68V507.911Z" stroke="#373737" stroke-width="2"/>
<path d="M349.523 536.339H339.099V538.234H349.523V536.339Z" fill="#D8D8D8"/>
<path d="M348.576 537.287H340.047V538.234H348.576V537.287Z" stroke="#373737" stroke-width="2"/>
<path d="M395.006 502.225H384.583V508.859H395.006V502.225Z" fill="white"/>
<path d="M394.059 503.173H385.53V507.911H394.059V503.173Z" stroke="#373737" stroke-width="2"/>
<path d="M393.111 506.963H386.478V538.234H393.111V506.963Z" fill="white"/>
<path d="M392.163 507.911H387.425V537.287H392.163V507.911Z" stroke="#373737" stroke-width="2"/>
<path d="M395.006 536.339H384.583V538.234H395.006V536.339Z" fill="#D8D8D8"/>
<path d="M394.059 537.287H385.53V538.234H394.059V537.287Z" stroke="#373737" stroke-width="2"/>
<path d="M375.108 502.225H359.945V508.859H375.108V502.225Z" fill="white"/>
<path d="M374.16 503.173H360.894V507.911H374.16V503.173Z" stroke="#373737" stroke-width="2"/>
<path d="M373.213 506.963H360.894V538.234H373.213V506.963Z" fill="white"/>
<path d="M372.265 507.911H361.84V537.287H372.265V507.911Z" stroke="#373737" stroke-width="2"/>
<path d="M375.108 536.339H359.945V538.234H375.108V536.339Z" fill="#D8D8D8"/>
<path d="M374.161 537.287H360.894V538.234H374.161V537.287Z" stroke="#373737" stroke-width="2"/>
<path d="M349.523 551.501H339.1V558.134H349.523V551.501Z" fill="white"/>
<path d="M348.575 552.448H340.047V557.186H348.575V552.448Z" stroke="#373737" stroke-width="2"/>
<path d="M347.626 556.238H340.994V587.509H347.626V556.238Z" fill="white"/>
<path d="M346.68 557.186H341.942V586.562H346.68V557.186Z" stroke="#373737" stroke-width="2"/>
<path d="M349.523 585.614H339.099V587.509H349.523V585.614Z" fill="#D8D8D8"/>
<path d="M348.576 586.562H340.047V587.509H348.576V586.562Z" stroke="#373737" stroke-width="2"/>
<path d="M395.006 551.501H384.583V558.134H395.006V551.501Z" fill="white"/>
<path d="M394.059 552.448H385.53V557.186H394.059V552.448Z" stroke="#373737" stroke-width="2"/>
<path d="M393.111 556.238H386.478V587.509H393.111V556.238Z" fill="white"/>
<path d="M392.163 557.186H387.425V586.562H392.163V557.186Z" stroke="#373737" stroke-width="2"/>
<path d="M395.006 585.614H384.583V587.509H395.006V585.614Z" fill="#D8D8D8"/>
<path d="M394.059 586.562H385.53V587.509H394.059V586.562Z" stroke="#373737" stroke-width="2"/>
<path d="M375.108 551.501H359.945V558.134H375.108V551.501Z" fill="white"/>
<path d="M374.16 552.448H360.894V557.186H374.16V552.448Z" stroke="#373737" stroke-width="2"/>
<path d="M373.213 556.238H360.894V587.509H373.213V556.238Z" fill="white"/>
<path d="M372.265 557.186H361.84V586.562H372.265V557.186Z" stroke="#373737" stroke-width="2"/>
<path d="M375.108 585.614H359.945V587.509H375.108V585.614Z" fill="#D8D8D8"/>
<path d="M374.161 586.562H360.894V587.509H374.161V586.562Z" stroke="#373737" stroke-width="2"/>
<path d="M360.894 397.043H334.362V417.89H360.894V397.043Z" fill="white"/>
<path d="M334.362 416.942H361.646L355.289 424.525L359.876 451.099H336.186L340.762 424.525L334.362 416.942Z" fill="white"/>
<path fill-rule="evenodd" clip-rule="evenodd" d="M336.401 417.89L341.771 424.251L337.31 450.151H358.751L354.28 424.253L359.614 417.89H336.401Z" stroke="#373737" stroke-width="2"/>
<path d="M354.261 423.576H340.995V425.471H354.261V423.576Z" fill="#373737"/>
<path d="M356.156 431.156H340.995V433.051H356.156V431.156Z" fill="#373737"/>
<path d="M358.051 442.528H339.099V444.423H358.051V442.528Z" fill="#373737"/>
<path d="M349.049 449.634V418.363H347.153V449.634H349.049Z" fill="#373737"/>
<path fill-rule="evenodd" clip-rule="evenodd" d="M364.537 395.148L348.101 380.934L331.666 395.148H330.571V397.043H365.632V395.148H364.537Z" fill="white" stroke="#373737" stroke-width="2" stroke-linecap="square"/>
<path d="M336.257 396.095H334.362V418.837H336.257V396.095Z" fill="#373737"/>
<path d="M361.842 396.095H359.945V418.837H361.842V396.095Z" fill="#373737"/>
<path d="M356.156 400.833H354.261V408.414H356.156V400.833Z" fill="#373737"/>
<path d="M344.785 413.152H342.89V417.89H344.785V413.152Z" fill="#373737"/>
<path d="M353.313 413.152H351.418V417.89H353.313V413.152Z" fill="#373737"/>
<path d="M364.684 416.942H331.518V418.837H364.684V416.942Z" fill="#373737"/>
<path d="M364.684 412.204H331.518V414.1H364.684V412.204Z" fill="#373737"/>
<path d="M475.552 427.366H448.072V437.79H475.552V427.366Z" fill="white"/>
<path d="M474.605 428.313H449.02V436.842H474.605V428.313Z" stroke="#373737" stroke-width="2"/>
<path d="M459.444 417.89H457.548V429.261H459.444V417.89Z" fill="#373737"/>
<path d="M464.181 421.68H462.286V428.313H464.181V421.68Z" fill="#373737"/>
<path d="M521.985 424.523H481.238V435.894H521.985V424.523Z" fill="white"/>
<path d="M521.037 425.471H482.186V434.947H521.037V425.471Z" stroke="#373737" stroke-width="2"/>
<path d="M464.181 586.562H459.443V598.881H464.181V586.562Z" stroke="#373737" stroke-width="2"/>
<path d="M480.291 586.562H475.553V598.881H480.291V586.562Z" stroke="#373737" stroke-width="2"/>
<path d="M496.4 586.562H491.662V598.881H496.4V586.562Z" stroke="#373737" stroke-width="2"/>
<path d="M512.509 586.562H507.771V598.881H512.509V586.562Z" stroke="#373737" stroke-width="2"/>
<path d="M492.609 546.763H480.291V548.658H492.609V546.763Z" fill="#373737"/>
<path d="M492.609 541.077H481.238V562.872H492.609V541.077Z" stroke="#373737" stroke-width="2"/>
<path d="M494.505 561.924H479.343V563.819H494.505V561.924Z" fill="#D8D8D8"/>
<path d="M494.032 562.397H479.818V563.346H494.032V562.397Z" stroke="#373737"/>
<path d="M512.509 546.763H500.19V548.658H512.509V546.763Z" fill="#373737"/>
<path d="M512.509 541.077H501.137V562.872H512.509V541.077Z" stroke="#373737" stroke-width="2"/>
<path d="M514.404 561.924H499.242V563.819H514.404V561.924Z" fill="#D8D8D8"/>
<path d="M513.93 562.397H499.716V563.346H513.93V562.397Z" stroke="#373737"/>
<path d="M490.714 425.471H488.819V434.947H490.714V425.471Z" fill="#373737"/>
<path d="M498.295 425.471H496.4V434.947H498.295V425.471Z" fill="#373737"/>
<path d="M506.823 425.471H504.928V434.947H506.823V425.471Z" fill="#373737"/>
<path d="M514.404 425.471H512.509V434.947H514.404V425.471Z" fill="#373737"/>
<path d="M522.932 433.999H449.02V599.828H522.932V433.999Z" fill="white"/>
<path d="M521.985 434.947H449.968V598.881H521.985V434.947Z" stroke="#373737" stroke-width="2"/>
<path d="M471.762 451.056H460.391V472.851H471.762V451.056Z" stroke="#373737" stroke-width="2"/>
<path d="M471.762 456.74H459.443V458.637H471.762V456.74Z" fill="#373737"/>
<path d="M473.658 471.903H458.496V473.797H473.658V471.903Z" fill="#D8D8D8"/>
<path d="M473.184 472.376H458.97V473.324H473.184V472.376Z" stroke="#373737"/>
<path d="M492.609 451.056H481.238V472.851H492.609V451.056Z" stroke="#373737" stroke-width="2"/>
<path d="M492.609 456.74H480.291V458.637H492.609V456.74Z" fill="#373737"/>
<path d="M494.505 471.903H479.343V473.797H494.505V471.903Z" fill="#D8D8D8"/>
<path d="M494.032 472.376H479.818V473.324H494.032V472.376Z" stroke="#373737"/>
<path d="M512.509 451.056H501.137V472.851H512.509V451.056Z" stroke="#373737" stroke-width="2"/>
<path d="M512.509 456.74H500.19V458.637H512.509V456.74Z" fill="#373737"/>
<path d="M514.404 471.903H499.242V473.797H514.404V471.903Z" fill="#D8D8D8"/>
<path d="M513.93 472.376H499.716V473.324H513.93V472.376Z" stroke="#373737"/>
<path d="M471.762 503.173H460.391V524.968H471.762V503.173Z" stroke="#373737" stroke-width="2"/>
<path d="M471.762 508.859H459.443V510.754H471.762V508.859Z" fill="#373737"/>
<path d="M473.658 524.02H458.496V525.915H473.658V524.02Z" fill="#D8D8D8"/>
<path d="M473.184 524.494H458.97V525.442H473.184V524.494Z" stroke="#373737"/>
<path d="M492.609 503.173H481.238V524.968H492.609V503.173Z" stroke="#373737" stroke-width="2"/>
<path d="M492.609 508.859H480.291V510.754H492.609V508.859Z" fill="#373737"/>
<path d="M494.505 524.02H479.343V525.915H494.505V524.02Z" fill="#D8D8D8"/>
<path d="M494.032 524.494H479.818V525.442H494.032V524.494Z" stroke="#373737"/>
<path d="M512.509 503.173H501.137V524.968H512.509V503.173Z" stroke="#373737" stroke-width="2"/>
<path d="M512.509 508.859H500.19V510.754H512.509V508.859Z" fill="#373737"/>
<path d="M514.404 524.02H499.242V525.915H514.404V524.02Z" fill="#D8D8D8"/>
<path d="M513.93 524.494H499.716V525.442H513.93V524.494Z" stroke="#373737"/>
<path d="M492.609 541.077H481.238V562.872H492.609V541.077Z" stroke="#373737" stroke-width="2"/>
<path d="M492.609 546.763H480.291V548.658H492.609V546.763Z" fill="#373737"/>
<path d="M494.505 561.924H479.343V563.819H494.505V561.924Z" fill="#D8D8D8"/>
<path d="M494.032 562.397H479.818V563.346H494.032V562.397Z" stroke="#373737"/>
<path d="M512.509 541.077H501.137V562.872H512.509V541.077Z" stroke="#373737" stroke-width="2"/>
<path d="M512.509 546.763H500.19V548.658H512.509V546.763Z" fill="#373737"/>
<path d="M514.404 561.924H499.242V563.819H514.404V561.924Z" fill="#D8D8D8"/>
<path d="M513.93 562.397H499.716V563.346H513.93V562.397Z" stroke="#373737"/>
<path d="M471.762 541.077H460.391V562.872H471.762V541.077Z" stroke="#373737" stroke-width="2"/>
<path d="M471.762 546.763H459.443V548.658H471.762V546.763Z" fill="#373737"/>
<path d="M473.658 561.924H458.496V563.819H473.658V561.924Z" fill="#D8D8D8"/>
<path d="M473.184 562.397H458.97V563.346H473.184V562.397Z" stroke="#373737"/>
<path d="M526.723 433.999H446.177V442.528H526.723V433.999Z" fill="white"/>
<path d="M525.775 434.947H447.125V441.58H525.775V434.947Z" stroke="#373737" stroke-width="2"/>
<path d="M526.723 487.065H446.177V495.592H526.723V487.065Z" fill="white"/>
<path d="M525.775 488.011H447.125V494.646H525.775V488.011Z" stroke="#373737" stroke-width="2"/>
<path d="M526.723 571.4H446.177V579.928H526.723V571.4Z" fill="white"/>
<path d="M525.775 572.348H447.125V578.981H525.775V572.348Z" stroke="#373737" stroke-width="2"/>
<path d="M162.846 427.366H135.366V437.79H162.846V427.366Z" fill="white"/>
<path d="M161.899 428.313H136.314V436.842H161.899V428.313Z" stroke="#373737" stroke-width="2"/>
<path d="M146.737 417.89H144.842V429.261H146.737V417.89Z" fill="#373737"/>
<path d="M151.475 421.68H149.58V428.313H151.475V421.68Z" fill="#373737"/>
<path d="M209.279 424.523H168.532V435.894H209.279V424.523Z" fill="white"/>
<path d="M208.33 425.471H169.48V434.947H208.33V425.471Z" stroke="#373737" stroke-width="2"/>
<path d="M151.475 586.562H146.737V598.881H151.475V586.562Z" stroke="#373737" stroke-width="2"/>
<path d="M167.584 586.562H162.846V598.881H167.584V586.562Z" stroke="#373737" stroke-width="2"/>
<path d="M183.694 586.562H178.956V598.881H183.694V586.562Z" stroke="#373737" stroke-width="2"/>
<path d="M199.803 586.562H195.065V598.881H199.803V586.562Z" stroke="#373737" stroke-width="2"/>
<path d="M179.903 546.763H167.585V548.658H179.903V546.763Z" fill="#373737"/>
<path d="M179.903 541.077H168.532V562.872H179.903V541.077Z" stroke="#373737" stroke-width="2"/>
<path d="M181.799 561.924H166.637V563.819H181.799V561.924Z" fill="#D8D8D8"/>
<path d="M181.325 562.397H167.111V563.346H181.325V562.397Z" stroke="#373737"/>
<path d="M199.803 546.763H187.484V548.658H199.803V546.763Z" fill="#373737"/>
<path d="M199.802 541.077H188.43V562.872H199.802V541.077Z" stroke="#373737" stroke-width="2"/>
<path d="M201.697 561.924H186.535V563.819H201.697V561.924Z" fill="#D8D8D8"/>
<path d="M201.224 562.397H187.01V563.346H201.224V562.397Z" stroke="#373737"/>
<path d="M178.008 425.471H176.113V434.947H178.008V425.471Z" fill="#373737"/>
<path d="M185.589 425.471H183.694V434.947H185.589V425.471Z" fill="#373737"/>
<path d="M194.116 425.471H192.222V434.947H194.116V425.471Z" fill="#373737"/>
<path d="M201.697 425.471H199.802V434.947H201.697V425.471Z" fill="#373737"/>
<path d="M210.225 433.999H136.314V599.828H210.225V433.999Z" fill="white"/>
<path d="M209.278 434.947H137.262V598.881H209.278V434.947Z" stroke="#373737" stroke-width="2"/>
<path d="M159.056 451.056H147.685V472.851H159.056V451.056Z" stroke="#373737" stroke-width="2"/>
<path d="M159.056 456.74H146.737V458.637H159.056V456.74Z" fill="#373737"/>
<path d="M160.951 471.903H145.79V473.797H160.951V471.903Z" fill="#D8D8D8"/>
<path d="M160.477 472.376H146.263V473.324H160.477V472.376Z" stroke="#373737"/>
<path d="M179.903 451.056H168.532V472.851H179.903V451.056Z" stroke="#373737" stroke-width="2"/>
<path d="M179.903 456.74H167.585V458.637H179.903V456.74Z" fill="#373737"/>
<path d="M181.799 471.903H166.637V473.797H181.799V471.903Z" fill="#D8D8D8"/>
<path d="M181.325 472.376H167.111V473.324H181.325V472.376Z" stroke="#373737"/>
<path d="M199.802 451.056H188.43V472.851H199.802V451.056Z" stroke="#373737" stroke-width="2"/>
<path d="M199.803 456.74H187.484V458.637H199.803V456.74Z" fill="#373737"/>
<path d="M201.697 471.903H186.535V473.797H201.697V471.903Z" fill="#D8D8D8"/>
<path d="M201.224 472.376H187.01V473.324H201.224V472.376Z" stroke="#373737"/>
<path d="M159.056 503.173H147.685V524.968H159.056V503.173Z" stroke="#373737" stroke-width="2"/>
<path d="M159.056 508.859H146.737V510.754H159.056V508.859Z" fill="#373737"/>
<path d="M160.951 524.02H145.79V525.915H160.951V524.02Z" fill="#D8D8D8"/>
<path d="M160.477 524.494H146.263V525.442H160.477V524.494Z" stroke="#373737"/>
<path d="M179.903 503.173H168.532V524.968H179.903V503.173Z" stroke="#373737" stroke-width="2"/>
<path d="M179.903 508.859H167.585V510.754H179.903V508.859Z" fill="#373737"/>
<path d="M181.799 524.02H166.637V525.915H181.799V524.02Z" fill="#D8D8D8"/>
<path d="M181.325 524.494H167.111V525.442H181.325V524.494Z" stroke="#373737"/>
<path d="M199.802 503.173H188.43V524.968H199.802V503.173Z" stroke="#373737" stroke-width="2"/>
<path d="M199.803 508.859H187.484V510.754H199.803V508.859Z" fill="#373737"/>
<path d="M201.697 524.02H186.535V525.915H201.697V524.02Z" fill="#D8D8D8"/>
<path d="M201.224 524.494H187.01V525.442H201.224V524.494Z" stroke="#373737"/>
<path d="M179.903 541.077H168.532V562.872H179.903V541.077Z" stroke="#373737" stroke-width="2"/>
<path d="M179.903 546.763H167.585V548.658H179.903V546.763Z" fill="#373737"/>
<path d="M181.799 561.924H166.637V563.819H181.799V561.924Z" fill="#D8D8D8"/>
<path d="M181.325 562.397H167.111V563.346H181.325V562.397Z" stroke="#373737"/>
<path d="M199.802 541.077H188.43V562.872H199.802V541.077Z" stroke="#373737" stroke-width="2"/>
<path d="M199.803 546.763H187.484V548.658H199.803V546.763Z" fill="#373737"/>
<path d="M201.697 561.924H186.535V563.819H201.697V561.924Z" fill="#D8D8D8"/>
<path d="M201.224 562.397H187.01V563.346H201.224V562.397Z" stroke="#373737"/>
<path d="M159.056 541.077H147.685V562.872H159.056V541.077Z" stroke="#373737" stroke-width="2"/>
<path d="M159.056 546.763H146.737V548.658H159.056V546.763Z" fill="#373737"/>
<path d="M160.951 561.924H145.79V563.819H160.951V561.924Z" fill="#D8D8D8"/>
<path d="M160.477 562.397H146.263V563.346H160.477V562.397Z" stroke="#373737"/>
<path d="M214.016 433.999H133.471V442.528H214.016V433.999Z" fill="white"/>
<path d="M213.07 434.947H134.419V441.58H213.07V434.947Z" stroke="#373737" stroke-width="2"/>
<path d="M214.016 487.065H133.471V495.592H214.016V487.065Z" fill="white"/>
<path d="M213.07 488.011H134.419V494.646H213.07V488.011Z" stroke="#373737" stroke-width="2"/>
<path d="M214.016 571.4H133.471V579.928H214.016V571.4Z" fill="white"/>
<path d="M213.07 572.348H134.419V578.981H213.07V572.348Z" stroke="#373737" stroke-width="2"/>
<path d="M612.954 487.065H533.357V599.828H612.954V487.065Z" fill="white"/>
<path d="M612.006 488.011H534.304V598.881H612.006V488.011Z" stroke="#373737" stroke-width="2"/>
<path d="M555.152 499.382H544.728V519.282H555.152V499.382Z" fill="white"/>
<path d="M554.204 500.33H545.675V518.334H554.204V500.33Z" stroke="#373737" stroke-width="2"/>
<path d="M557.046 499.382H542.832V505.068H557.046V499.382Z" fill="white"/>
<path d="M556.099 500.33H543.78V504.12H556.099V500.33Z" stroke="#373737" stroke-width="2"/>
<path d="M556.099 517.387H543.78V519.282H556.099V517.387Z" fill="#373737"/>
<path d="M555.152 508.859H544.728V510.754H555.152V508.859Z" fill="#373737"/>
<path d="M577.894 499.382H567.469V519.282H577.894V499.382Z" fill="white"/>
<path d="M576.945 500.33H568.418V518.334H576.945V500.33Z" stroke="#373737" stroke-width="2"/>
<path d="M579.789 499.382H565.575V505.068H579.789V499.382Z" fill="white"/>
<path d="M578.842 500.33H566.523V504.12H578.842V500.33Z" stroke="#373737" stroke-width="2"/>
<path d="M578.842 517.387H566.523V519.282H578.842V517.387Z" fill="#373737"/>
<path d="M577.894 508.859H567.469V510.754H577.894V508.859Z" fill="#373737"/>
<path d="M599.687 499.382H589.265V519.282H599.687V499.382Z" fill="white"/>
<path d="M598.739 500.33H590.211V518.334H598.739V500.33Z" stroke="#373737" stroke-width="2"/>
<path d="M601.582 499.382H587.368V505.068H601.582V499.382Z" fill="white"/>
<path d="M600.635 500.33H588.316V504.12H600.635V500.33Z" stroke="#373737" stroke-width="2"/>
<path d="M600.635 517.387H588.316V519.282H600.635V517.387Z" fill="#373737"/>
<path d="M599.687 508.859H589.265V510.754H599.687V508.859Z" fill="#373737"/>
<path d="M555.152 537.287H544.728V557.186H555.152V537.287Z" fill="white"/>
<path d="M554.204 538.234H545.675V556.238H554.204V538.234Z" stroke="#373737" stroke-width="2"/>
<path d="M557.046 537.287H542.832V542.972H557.046V537.287Z" fill="white"/>
<path d="M556.099 538.234H543.78V542.024H556.099V538.234Z" stroke="#373737" stroke-width="2"/>
<path d="M556.099 555.291H543.78V557.186H556.099V555.291Z" fill="#373737"/>
<path d="M555.152 546.763H544.728V548.658H555.152V546.763Z" fill="#373737"/>
<path d="M577.894 537.287H567.469V557.186H577.894V537.287Z" fill="white"/>
<path d="M576.945 538.234H568.418V556.238H576.945V538.234Z" stroke="#373737" stroke-width="2"/>
<path d="M579.789 537.287H565.575V542.972H579.789V537.287Z" fill="white"/>
<path d="M578.842 538.234H566.523V542.024H578.842V538.234Z" stroke="#373737" stroke-width="2"/>
<path d="M578.842 555.291H566.523V557.186H578.842V555.291Z" fill="#373737"/>
<path d="M577.894 546.763H567.469V548.658H577.894V546.763Z" fill="#373737"/>
<path d="M599.687 537.287H589.265V557.186H599.687V537.287Z" fill="white"/>
<path d="M598.739 538.234H590.211V556.238H598.739V538.234Z" stroke="#373737" stroke-width="2"/>
<path d="M601.582 537.287H587.368V542.972H601.582V537.287Z" fill="white"/>
<path d="M600.635 538.234H588.316V542.024H600.635V538.234Z" stroke="#373737" stroke-width="2"/>
<path d="M600.635 555.291H588.316V557.186H600.635V555.291Z" fill="#373737"/>
<path d="M599.687 546.763H589.265V548.658H599.687V546.763Z" fill="#373737"/>
<path d="M555.152 575.191H544.728V595.09H555.152V575.191Z" fill="white"/>
<path d="M554.204 576.138H545.675V594.143H554.204V576.138Z" stroke="#373737" stroke-width="2"/>
<path d="M557.046 575.191H542.832V580.876H557.046V575.191Z" fill="white"/>
<path d="M556.099 576.138H543.78V579.929H556.099V576.138Z" stroke="#373737" stroke-width="2"/>
<path d="M556.099 593.195H543.78V595.09H556.099V593.195Z" fill="#373737"/>
<path d="M555.152 584.667H544.728V586.562H555.152V584.667Z" fill="#373737"/>
<path d="M577.894 575.191H567.469V595.09H577.894V575.191Z" fill="white"/>
<path d="M576.945 576.138H568.418V594.143H576.945V576.138Z" stroke="#373737" stroke-width="2"/>
<path d="M579.789 575.191H565.575V580.876H579.789V575.191Z" fill="white"/>
<path d="M578.842 576.138H566.523V579.929H578.842V576.138Z" stroke="#373737" stroke-width="2"/>
<path d="M578.842 593.195H566.523V595.09H578.842V593.195Z" fill="#373737"/>
<path d="M577.894 584.667H567.469V586.562H577.894V584.667Z" fill="#373737"/>
<path d="M599.687 575.191H589.265V595.09H599.687V575.191Z" fill="white"/>
<path d="M598.739 576.138H590.211V594.143H598.739V576.138Z" stroke="#373737" stroke-width="2"/>
<path d="M601.582 575.191H587.368V580.876H601.582V575.191Z" fill="white"/>
<path d="M600.635 576.138H588.316V579.929H600.635V576.138Z" stroke="#373737" stroke-width="2"/>
<path d="M600.635 593.195H588.316V595.09H600.635V593.195Z" fill="#373737"/>
<path d="M599.687 584.667H589.265V586.562H599.687V584.667Z" fill="#373737"/>
<path d="M615.797 486.116H529.566V494.644H615.797V486.116Z" fill="white"/>
<path d="M614.849 487.065H530.513V493.698H614.849V487.065Z" stroke="#373737" stroke-width="2"/>
<path d="M562.732 478.536H537.147V488.011H562.732V478.536Z" fill="white"/>
<path d="M561.783 479.484H538.093V487.065H561.783V479.484Z" stroke="#373737" stroke-width="2"/>
<path d="M548.518 473.797H545.675V480.43H548.518V473.797Z" fill="#373737"/>
<path d="M553.256 473.797H550.413V480.43H553.256V473.797Z" fill="#373737"/>
<path d="M615.797 524.02H529.566V532.548H615.797V524.02Z" fill="white"/>
<path d="M614.849 524.968H530.514V531.601H614.849V524.968Z" stroke="#373737" stroke-width="2"/>
<path d="M615.797 561.924H529.566V570.453H615.797V561.924Z" fill="white"/>
<path d="M614.849 562.872H530.514V569.505H614.849V562.872Z" stroke="#373737" stroke-width="2"/>
<path d="M123.995 487.065H44.3971V599.828H123.995V487.065Z" fill="white"/>
<path d="M123.048 488.011H45.3447V598.881H123.048V488.011Z" stroke="#373737" stroke-width="2"/>
<path d="M66.1912 499.382H55.7684V519.282H66.1912V499.382Z" fill="white"/>
<path d="M65.2443 500.33H56.7165V518.334H65.2443V500.33Z" stroke="#373737" stroke-width="2"/>
<path d="M68.0874 499.382H53.8734V505.068H68.0874V499.382Z" fill="white"/>
<path d="M67.1393 500.33H54.8203V504.12H67.1393V500.33Z" stroke="#373737" stroke-width="2"/>
<path d="M67.1393 517.387H54.8203V519.282H67.1393V517.387Z" fill="#373737"/>
<path d="M66.1912 508.859H55.7684V510.754H66.1912V508.859Z" fill="#373737"/>
<path d="M88.9341 499.382H78.5101V519.282H88.9341V499.382Z" fill="white"/>
<path d="M87.9861 500.33H79.4583V518.334H87.9861V500.33Z" stroke="#373737" stroke-width="2"/>
<path d="M90.8291 499.382H76.6152V505.068H90.8291V499.382Z" fill="white"/>
<path d="M89.8823 500.33H77.5633V504.12H89.8823V500.33Z" stroke="#373737" stroke-width="2"/>
<path d="M89.8823 517.387H77.5633V519.282H89.8823V517.387Z" fill="#373737"/>
<path d="M88.9341 508.859H78.5101V510.754H88.9341V508.859Z" fill="#373737"/>
<path d="M110.729 499.382H100.305V519.282H110.729V499.382Z" fill="white"/>
<path d="M109.781 500.33H101.253V518.334H109.781V500.33Z" stroke="#373737" stroke-width="2"/>
<path d="M112.624 499.382H98.4102V505.068H112.624V499.382Z" fill="white"/>
<path d="M111.676 500.33H99.3583V504.12H111.676V500.33Z" stroke="#373737" stroke-width="2"/>
<path d="M111.676 517.387H99.3583V519.282H111.676V517.387Z" fill="#373737"/>
<path d="M110.729 508.859H100.305V510.754H110.729V508.859Z" fill="#373737"/>
<path d="M66.1912 537.287H55.7684V557.186H66.1912V537.287Z" fill="white"/>
<path d="M65.2443 538.234H56.7165V556.238H65.2443V538.234Z" stroke="#373737" stroke-width="2"/>
<path d="M68.0874 537.287H53.8734V542.972H68.0874V537.287Z" fill="white"/>
<path d="M67.1393 538.234H54.8203V542.024H67.1393V538.234Z" stroke="#373737" stroke-width="2"/>
<path d="M67.1393 555.291H54.8203V557.186H67.1393V555.291Z" fill="#373737"/>
<path d="M66.1912 546.763H55.7684V548.658H66.1912V546.763Z" fill="#373737"/>
<path d="M88.9341 537.287H78.5101V557.186H88.9341V537.287Z" fill="white"/>
<path d="M87.9861 538.234H79.4583V556.238H87.9861V538.234Z" stroke="#373737" stroke-width="2"/>
<path d="M90.8291 537.287H76.6152V542.972H90.8291V537.287Z" fill="white"/>
<path d="M89.8823 538.234H77.5633V542.024H89.8823V538.234Z" stroke="#373737" stroke-width="2"/>
<path d="M89.8823 555.291H77.5633V557.186H89.8823V555.291Z" fill="#373737"/>
<path d="M88.9341 546.763H78.5101V548.658H88.9341V546.763Z" fill="#373737"/>
<path d="M110.729 537.287H100.305V557.186H110.729V537.287Z" fill="white"/>
<path d="M109.781 538.234H101.253V556.238H109.781V538.234Z" stroke="#373737" stroke-width="2"/>
<path d="M112.624 537.287H98.4102V542.972H112.624V537.287Z" fill="white"/>
<path d="M111.676 538.234H99.3583V542.024H111.676V538.234Z" stroke="#373737" stroke-width="2"/>
<path d="M111.676 555.291H99.3583V557.186H111.676V555.291Z" fill="#373737"/>
<path d="M110.729 546.763H100.305V548.658H110.729V546.763Z" fill="#373737"/>
<path d="M66.1912 575.191H55.7684V595.09H66.1912V575.191Z" fill="white"/>
<path d="M65.2443 576.138H56.7165V594.143H65.2443V576.138Z" stroke="#373737" stroke-width="2"/>
<path d="M68.0874 575.191H53.8734V580.876H68.0874V575.191Z" fill="white"/>
<path d="M67.1393 576.138H54.8203V579.929H67.1393V576.138Z" stroke="#373737" stroke-width="2"/>
<path d="M67.1393 593.195H54.8203V595.09H67.1393V593.195Z" fill="#373737"/>
<path d="M66.1912 584.667H55.7684V586.562H66.1912V584.667Z" fill="#373737"/>
<path d="M88.9341 575.191H78.5101V595.09H88.9341V575.191Z" fill="white"/>
<path d="M87.9861 576.138H79.4583V594.143H87.9861V576.138Z" stroke="#373737" stroke-width="2"/>
<path d="M90.8291 575.191H76.6152V580.876H90.8291V575.191Z" fill="white"/>
<path d="M89.8823 576.138H77.5633V579.929H89.8823V576.138Z" stroke="#373737" stroke-width="2"/>
<path d="M89.8823 593.195H77.5633V595.09H89.8823V593.195Z" fill="#373737"/>
<path d="M88.9341 584.667H78.5101V586.562H88.9341V584.667Z" fill="#373737"/>
<path d="M110.729 575.191H100.305V595.09H110.729V575.191Z" fill="white"/>
<path d="M109.781 576.138H101.253V594.143H109.781V576.138Z" stroke="#373737" stroke-width="2"/>
<path d="M112.624 575.191H98.4102V580.876H112.624V575.191Z" fill="white"/>
<path d="M111.676 576.138H99.3583V579.929H111.676V576.138Z" stroke="#373737" stroke-width="2"/>
<path d="M111.676 593.195H99.3583V595.09H111.676V593.195Z" fill="#373737"/>
<path d="M110.729 584.667H100.305V586.562H110.729V584.667Z" fill="#373737"/>
<path d="M126.838 486.116H40.6064V494.644H126.838V486.116Z" fill="white"/>
<path d="M125.89 487.065H41.554V493.698H125.89V487.065Z" stroke="#373737" stroke-width="2"/>
<path d="M73.7722 478.536H48.1873V488.011H73.7722V478.536Z" fill="white"/>
<path d="M72.8241 479.484H49.1347V487.065H72.8241V479.484Z" stroke="#373737" stroke-width="2"/>
<path d="M59.5583 473.797H56.7152V480.43H59.5583V473.797Z" fill="#373737"/>
<path d="M64.2962 473.797H61.4531V480.43H64.2962V473.797Z" fill="#373737"/>
<path d="M126.838 524.02H40.6064V532.548H126.838V524.02Z" fill="white"/>
<path d="M125.89 524.968H41.554V531.601H125.89V524.968Z" stroke="#373737" stroke-width="2"/>
<path d="M126.838 561.924H40.6064V570.453H126.838V561.924Z" fill="white"/>
<path d="M125.89 562.872H41.554V569.505H125.89V562.872Z" stroke="#373737" stroke-width="2"/>
<path d="M1172.98 485.168H1146.45V497.487H1172.98V485.168Z" fill="white"/>
<path d="M1172.04 486.116H1147.4V496.54H1172.04V486.116Z" stroke="#373737" stroke-width="2"/>
<path d="M1156.87 481.379H1154.98V487.065H1156.87V481.379Z" fill="#373737"/>
<path d="M1163.51 479.484H1161.61V485.17H1163.51V479.484Z" fill="#373737"/>
<path d="M1131.29 472.851H1112.34V487.065H1131.29V472.851Z" stroke="#373737" stroke-width="2"/>
<path fill-rule="evenodd" clip-rule="evenodd" d="M1121.81 463.375L1131.29 472.851H1112.34L1121.81 463.375Z" stroke="#373737" stroke-width="2" stroke-linejoin="round"/>
<g style="mix-blend-mode:multiply">
<g style="mix-blend-mode:multiply">
<path fill-rule="evenodd" clip-rule="evenodd" d="M1121.81 463.375L1121.53 472.851H1112.34L1121.81 463.375Z" fill="#1290CB"/>
</g>
</g>
<path d="M1117.07 487.065H1115.18V491.802H1117.07V487.065Z" fill="#373737"/>
<path d="M1126.55 477.589H1124.66V482.327H1126.55V477.589Z" fill="#373737"/>
<path d="M1128.45 487.065H1126.55V491.802H1128.45V487.065Z" fill="#373737"/>
<path d="M1185.3 491.802H1106.65V599.828H1185.3V491.802Z" fill="white"/>
<path d="M1184.35 492.749H1107.6V598.88H1184.35V492.749Z" stroke="#373737" stroke-width="2"/>
<path d="M1188.14 491.802H1104.76V500.33H1188.14V491.802Z" fill="white"/>
<path d="M1187.2 492.749H1105.7V499.382H1187.2V492.749Z" stroke="#373737" stroke-width="2"/>
<path d="M1188.14 534.444H1104.76V542.972H1188.14V534.444Z" fill="white"/>
<path d="M1187.2 535.391H1105.7V542.024H1187.2V535.391Z" stroke="#373737" stroke-width="2"/>
<path d="M1129.39 525.915H1114.23V527.811H1129.39V525.915Z" fill="#373737"/>
<path d="M1127.5 508.859H1116.13V526.863H1127.5V508.859Z" stroke="#373737" stroke-width="2"/>
<path d="M1128.45 514.544H1115.18V516.439H1128.45V514.544Z" fill="#373737"/>
<path d="M1122.76 514.544H1120.86V526.863H1122.76V514.544Z" fill="#373737"/>
<path d="M1152.14 525.915H1136.97V527.811H1152.14V525.915Z" fill="#373737"/>
<path d="M1150.24 508.859H1138.87V526.863H1150.24V508.859Z" stroke="#373737" stroke-width="2"/>
<path d="M1151.19 514.544H1137.92V516.439H1151.19V514.544Z" fill="#373737"/>
<path d="M1145.5 514.544H1143.61V526.863H1145.5V514.544Z" fill="#373737"/>
<path d="M1175.83 525.915H1160.66V527.811H1175.83V525.915Z" fill="#373737"/>
<path d="M1173.93 508.859H1162.56V526.863H1173.93V508.859Z" stroke="#373737" stroke-width="2"/>
<path d="M1174.88 514.544H1161.61V516.439H1174.88V514.544Z" fill="#373737"/>
<path d="M1169.19 514.544H1167.3V526.863H1169.19V514.544Z" fill="#373737"/>
<path d="M1129.39 569.505H1114.23V571.4H1129.39V569.505Z" fill="#373737"/>
<path d="M1127.5 552.448H1116.13V570.452H1127.5V552.448Z" stroke="#373737" stroke-width="2"/>
<path d="M1128.45 558.134H1115.18V560.029H1128.45V558.134Z" fill="#373737"/>
<path d="M1122.76 558.134H1120.86V570.453H1122.76V558.134Z" fill="#373737"/>
<path d="M1124.66 587.509H1118.97V598.881H1124.66V587.509Z" fill="white"/>
<path d="M1123.71 588.457H1119.92V597.933H1123.71V588.457Z" stroke="#373737" stroke-width="2"/>
<path d="M1140.76 587.509H1135.08V598.881H1140.76V587.509Z" fill="white"/>
<path d="M1139.82 588.457H1136.03V597.933H1139.82V588.457Z" stroke="#373737" stroke-width="2"/>
<path d="M1156.87 587.509H1151.19V598.881H1156.87V587.509Z" fill="white"/>
<path d="M1155.93 588.457H1152.14V597.933H1155.93V588.457Z" stroke="#373737" stroke-width="2"/>
<path d="M1172.98 587.509H1167.3V598.881H1172.98V587.509Z" fill="white"/>
<path d="M1172.04 588.457H1168.25V597.933H1172.04V588.457Z" stroke="#373737" stroke-width="2"/>
<path d="M1152.14 569.505H1136.97V571.4H1152.14V569.505Z" fill="#373737"/>
<path d="M1150.24 552.448H1138.87V570.452H1150.24V552.448Z" stroke="#373737" stroke-width="2"/>
<path d="M1151.19 558.134H1137.92V560.029H1151.19V558.134Z" fill="#373737"/>
<path d="M1145.5 558.134H1143.61V570.453H1145.5V558.134Z" fill="#373737"/>
<path d="M1175.83 569.505H1160.66V571.4H1175.83V569.505Z" fill="#373737"/>
<path d="M1173.93 552.448H1162.56V570.452H1173.93V552.448Z" stroke="#373737" stroke-width="2"/>
<path d="M1174.88 558.134H1161.61V560.029H1174.88V558.134Z" fill="#373737"/>
<path d="M1169.19 558.134H1167.3V570.453H1169.19V558.134Z" fill="#373737"/>
<path d="M1296.16 432.104H1196.67V599.828H1296.16V432.104Z" fill="white"/>
<path d="M1295.23 433.051H1197.62V598.88H1295.23V433.051Z" stroke="#373737" stroke-width="2"/>
<path d="M1219.42 463.375H1207.1V465.27H1219.42V463.375Z" fill="#373737"/>
<path d="M1213.25 446.318C1216.14 446.318 1218.47 448.651 1218.47 451.529V464.322H1208.04V451.529C1208.04 448.651 1210.38 446.318 1213.25 446.318Z" fill="white"/>
<path fill-rule="evenodd" clip-rule="evenodd" d="M1208.99 463.375H1217.52V451.529C1217.52 449.175 1215.61 447.265 1213.25 447.265C1210.9 447.265 1208.99 449.175 1208.99 451.529V463.375Z" stroke="#373737" stroke-width="2"/>
<path d="M1241.22 463.375H1228.89V465.27H1241.22V463.375Z" fill="#373737"/>
<path d="M1235.05 446.318C1237.92 446.318 1240.27 448.651 1240.27 451.529V464.322H1229.84V451.529C1229.84 448.651 1232.18 446.318 1235.05 446.318Z" fill="white"/>
<path fill-rule="evenodd" clip-rule="evenodd" d="M1230.78 463.375H1239.32V451.529C1239.32 449.175 1237.4 447.265 1235.05 447.265C1232.7 447.265 1230.78 449.175 1230.78 451.529V463.375Z" stroke="#373737" stroke-width="2"/>
<path d="M1263 463.375H1250.68V465.27H1263V463.375Z" fill="#373737"/>
<path d="M1256.85 446.318C1259.72 446.318 1262.06 448.651 1262.06 451.529V464.322H1251.63V451.529C1251.63 448.651 1253.96 446.318 1256.85 446.318Z" fill="white"/>
<path fill-rule="evenodd" clip-rule="evenodd" d="M1252.58 463.375H1261.11V451.529C1261.11 449.175 1259.2 447.265 1256.85 447.265C1254.49 447.265 1252.58 449.175 1252.58 451.529V463.375Z" stroke="#373737" stroke-width="2"/>
<path d="M1284.8 463.375H1272.48V465.27H1284.8V463.375Z" fill="#373737"/>
<path d="M1278.65 446.318C1281.52 446.318 1283.85 448.651 1283.85 451.529V464.322H1273.43V451.529C1273.43 448.651 1275.76 446.318 1278.65 446.318Z" fill="white"/>
<path fill-rule="evenodd" clip-rule="evenodd" d="M1274.38 463.375H1282.9V451.529C1282.9 449.175 1281 447.265 1278.65 447.265C1276.29 447.265 1274.38 449.175 1274.38 451.529V463.375Z" stroke="#373737" stroke-width="2"/>
<path d="M1219.42 506.016H1207.1V507.911H1219.42V506.016Z" fill="#373737"/>
<path d="M1213.25 488.96C1216.14 488.96 1218.47 491.292 1218.47 494.171V506.963H1208.04V494.171C1208.04 491.292 1210.38 488.96 1213.25 488.96Z" fill="white"/>
<path fill-rule="evenodd" clip-rule="evenodd" d="M1208.99 506.016H1217.52V494.171C1217.52 491.816 1215.61 489.906 1213.25 489.906C1210.9 489.906 1208.99 491.816 1208.99 494.171V506.016Z" stroke="#373737" stroke-width="2"/>
<path d="M1241.22 506.016H1228.89V507.911H1241.22V506.016Z" fill="#373737"/>
<path d="M1235.05 488.96C1237.92 488.96 1240.27 491.292 1240.27 494.171V506.963H1229.84V494.171C1229.84 491.292 1232.18 488.96 1235.05 488.96Z" fill="white"/>
<path fill-rule="evenodd" clip-rule="evenodd" d="M1230.78 506.016H1239.32V494.171C1239.32 491.816 1237.4 489.906 1235.05 489.906C1232.7 489.906 1230.78 491.816 1230.78 494.171V506.016Z" stroke="#373737" stroke-width="2"/>
<path d="M1263 506.016H1250.68V507.911H1263V506.016Z" fill="#373737"/>
<path d="M1256.85 488.96C1259.72 488.96 1262.06 491.292 1262.06 494.171V506.963H1251.63V494.171C1251.63 491.292 1253.96 488.96 1256.85 488.96Z" fill="white"/>
<path fill-rule="evenodd" clip-rule="evenodd" d="M1252.58 506.016H1261.11V494.171C1261.11 491.816 1259.2 489.906 1256.85 489.906C1254.49 489.906 1252.58 491.816 1252.58 494.171V506.016Z" stroke="#373737" stroke-width="2"/>
<path d="M1284.8 506.016H1272.48V507.911H1284.8V506.016Z" fill="#373737"/>
<path d="M1278.65 488.96C1281.52 488.96 1283.85 491.292 1283.85 494.171V506.963H1273.43V494.171C1273.43 491.292 1275.76 488.96 1278.65 488.96Z" fill="white"/>
<path fill-rule="evenodd" clip-rule="evenodd" d="M1274.38 506.016H1282.9V494.171C1282.9 491.816 1281 489.906 1278.65 489.906C1276.29 489.906 1274.38 491.816 1274.38 494.171V506.016Z" stroke="#373737" stroke-width="2"/>
<path d="M1224.15 546.763H1211.84V548.658H1224.15V546.763Z" fill="#373737"/>
<path d="M1217.99 529.706C1220.87 529.706 1223.2 532.039 1223.2 534.918V547.71H1212.78V534.918C1212.78 532.039 1215.11 529.706 1217.99 529.706Z" fill="white"/>
<path fill-rule="evenodd" clip-rule="evenodd" d="M1213.73 546.763H1222.25V534.918C1222.25 532.563 1220.35 530.653 1217.99 530.653C1215.63 530.653 1213.73 532.563 1213.73 534.918V546.763Z" stroke="#373737" stroke-width="2"/>
<path d="M1245.95 546.763H1233.63V548.658H1245.95V546.763Z" fill="#373737"/>
<path d="M1239.78 529.706C1242.67 529.706 1245 532.039 1245 534.918V547.71H1234.58V534.918C1234.58 532.039 1236.91 529.706 1239.78 529.706Z" fill="white"/>
<path fill-rule="evenodd" clip-rule="evenodd" d="M1235.52 546.763H1244.05V534.918C1244.05 532.563 1242.14 530.653 1239.78 530.653C1237.43 530.653 1235.52 532.563 1235.52 534.918V546.763Z" stroke="#373737" stroke-width="2"/>
<path d="M1299.01 431.156H1193.84V439.685H1299.01V431.156Z" fill="white"/>
<path d="M1298.06 432.104H1194.77V438.737H1298.06V432.104Z" stroke="#373737" stroke-width="2"/>
<path d="M1299.01 473.797H1193.84V482.327H1299.01V473.797Z" fill="white"/>
<path d="M1298.06 474.746H1194.77V481.379H1298.06V474.746Z" stroke="#373737" stroke-width="2"/>
<path d="M1299.01 514.544H1193.84V523.072H1299.01V514.544Z" fill="white"/>
<path d="M1298.06 515.492H1194.77V522.125H1298.06V515.492Z" stroke="#373737" stroke-width="2"/>
<path d="M1288.59 527.81H1263V598.881H1288.59V527.81Z" stroke="#373737" stroke-width="2"/>
<path d="M1283.85 532.548H1267.75V567.61H1283.85V532.548Z" stroke="#373737" stroke-width="2"/>
<path d="M1288.59 566.662H1263.95V568.557H1288.59V566.662Z" fill="#373737"/>
<path d="M1288.59 571.4H1263.95V573.295H1288.59V571.4Z" fill="#373737"/>
<path d="M1288.59 577.086H1263.95V578.981H1288.59V577.086Z" fill="#373737"/>
<path d="M1288.59 581.824H1263.95V583.719H1288.59V581.824Z" fill="#373737"/>
<path d="M1288.59 587.509H1263.95V589.405H1288.59V587.509Z" fill="#373737"/>
<path d="M1288.59 592.247H1263.95V594.142H1288.59V592.247Z" fill="#373737"/>
<path d="M1236.47 569.505H1215.62V571.4H1236.47V569.505Z" fill="#373737"/>
<path d="M1263 555.291H1197.62V557.186H1263V555.291Z" fill="#373737"/>
<path d="M1243.1 565.715H1209.94V585.614H1243.1V565.715Z" stroke="#373737" stroke-width="2"/>
<path d="M1245 585.614H1208.04V591.3H1245V585.614Z" stroke="#373737" stroke-width="2"/>
<path d="M1236.47 565.715H1216.57V585.614H1236.47V565.715Z" stroke="#373737" stroke-width="2"/>
<path d="M1255.43 424.523H1199.52V433.051H1255.43V424.523Z" fill="white"/>
<path d="M1254.48 425.471H1200.47V432.104H1254.48V425.471Z" stroke="#373737" stroke-width="2"/>
<path d="M1208.99 425.471H1207.1V432.104H1208.99V425.471Z" fill="#373737"/>
<path d="M1216.57 425.471H1214.68V432.104H1216.57V425.471Z" fill="#373737"/>
<path d="M1224.15 425.471H1222.25V432.104H1224.15V425.471Z" fill="#373737"/>
<path d="M1231.73 425.471H1229.84V432.104H1231.73V425.471Z" fill="#373737"/>
<path d="M1239.32 425.471H1237.42V432.104H1239.32V425.471Z" fill="#373737"/>
<path d="M1246.9 425.471H1245V432.104H1246.9V425.471Z" fill="#373737"/>
<path d="M1286.7 405.571H1262.06V426.418H1286.7V405.571Z" fill="white"/>
<path d="M1285.75 406.519H1263V425.471H1285.75V406.519Z" stroke="#373737" stroke-width="2"/>
<path d="M1281.96 412.204H1280.06V419.785H1281.96V412.204Z" fill="#373737"/>
<path d="M1268.7 426.418H1266.8V432.104H1268.7V426.418Z" fill="#373737"/>
<path d="M1282.9 425.471H1281.01V431.156H1282.9V425.471Z" fill="#373737"/>
<path fill-rule="evenodd" clip-rule="evenodd" d="M1274.38 395.238L1285.52 406.662C1285.7 406.849 1285.7 407.149 1285.51 407.332C1285.42 407.418 1285.3 407.466 1285.18 407.466H1263.53C1263.28 407.466 1263.06 407.254 1263.06 406.992C1263.06 406.868 1263.11 406.749 1263.2 406.661L1274.38 395.238Z" fill="white" stroke="#373737" stroke-width="2"/>
<g style="mix-blend-mode:multiply">
<g style="mix-blend-mode:multiply">
<path fill-rule="evenodd" clip-rule="evenodd" d="M1274.38 395.238L1285.52 406.662C1285.7 406.849 1285.7 407.149 1285.51 407.332C1285.42 407.418 1285.3 407.466 1285.18 407.466H1274.34L1274.38 395.238Z" fill="#1290CB"/>
</g>
</g>
<path d="M1371.97 440.632H1307.54V575.191H1371.97V440.632Z" fill="white"/>
<path d="M1371.03 441.58H1308.49V574.243H1371.03V441.58Z" stroke="#373737" stroke-width="2"/>
<path d="M1368.19 430.209H1360.61V442.528H1368.19V430.209Z" fill="white"/>
<path d="M1367.24 431.156H1361.56V441.58H1367.24V431.156Z" stroke="#373737" stroke-width="2"/>
<path fill-rule="evenodd" clip-rule="evenodd" d="M1371.03 468.091V458.637L1339.86 417.801L1308.49 458.637V468.113L1339.86 427.277L1371.03 468.091Z" fill="white" stroke="#373737" stroke-width="2"/>
<path d="M1334.08 460.532H1323.65V482.327H1334.08V460.532Z" stroke="#373737" stroke-width="2"/>
<path d="M1334.08 470.008H1323.65V471.903H1334.08V470.008Z" fill="#D8D8D8"/>
<path d="M1333.59 470.481H1324.13V471.429H1333.59V470.481Z" stroke="#373737"/>
<path d="M1330.28 470.008H1328.39V482.327H1330.28V470.008Z" fill="#D8D8D8"/>
<path d="M1329.81 470.481H1328.86V481.852H1329.81V470.481Z" stroke="#373737"/>
<path d="M1355.87 460.532H1345.44V482.327H1355.87V460.532Z" stroke="#373737" stroke-width="2"/>
<path d="M1355.87 470.008H1345.44V471.903H1355.87V470.008Z" fill="#D8D8D8"/>
<path d="M1355.39 470.481H1345.92V471.429H1355.39V470.481Z" stroke="#373737"/>
<path d="M1352.08 470.008H1350.19V482.327H1352.08V470.008Z" fill="#D8D8D8"/>
<path d="M1351.61 470.481H1350.66V481.852H1351.61V470.481Z" stroke="#373737"/>
<path d="M1334.08 501.279H1323.65V523.073H1334.08V501.279Z" stroke="#373737" stroke-width="2"/>
<path d="M1334.08 510.754H1323.65V512.649H1334.08V510.754Z" fill="#D8D8D8"/>
<path d="M1333.59 511.228H1324.13V512.176H1333.59V511.228Z" stroke="#373737"/>
<path d="M1330.28 510.754H1328.39V523.073H1330.28V510.754Z" fill="#D8D8D8"/>
<path d="M1329.81 511.228H1328.86V522.599H1329.81V511.228Z" stroke="#373737"/>
<path d="M1355.87 501.279H1345.44V523.073H1355.87V501.279Z" stroke="#373737" stroke-width="2"/>
<path d="M1355.87 510.754H1345.44V512.649H1355.87V510.754Z" fill="#D8D8D8"/>
<path d="M1355.39 511.228H1345.92V512.176H1355.39V511.228Z" stroke="#373737"/>
<path d="M1352.08 510.754H1350.19V523.073H1352.08V510.754Z" fill="#D8D8D8"/>
<path d="M1351.61 511.228H1350.66V522.599H1351.61V511.228Z" stroke="#373737"/>
<path d="M1334.08 542.024H1323.65V563.819H1334.08V542.024Z" stroke="#373737" stroke-width="2"/>
<path d="M1334.08 551.501H1323.65V553.396H1334.08V551.501Z" fill="#D8D8D8"/>
<path d="M1333.59 551.975H1324.13V552.922H1333.59V551.975Z" stroke="#373737"/>
<path d="M1330.28 551.501H1328.39V563.819H1330.28V551.501Z" fill="#D8D8D8"/>
<path d="M1329.81 551.975H1328.86V563.346H1329.81V551.975Z" stroke="#373737"/>
<path d="M1355.87 542.024H1345.44V563.819H1355.87V542.024Z" stroke="#373737" stroke-width="2"/>
<path d="M1355.87 551.501H1345.44V553.396H1355.87V551.501Z" fill="#D8D8D8"/>
<path d="M1355.39 551.975H1345.92V552.922H1355.39V551.975Z" stroke="#373737"/>
<path d="M1352.08 551.501H1350.19V563.819H1352.08V551.501Z" fill="#D8D8D8"/>
<path d="M1351.61 551.975H1350.66V563.346H1351.61V551.975Z" stroke="#373737"/>
<path d="M1374.82 573.295H1304.7V599.828H1374.82V573.295Z" fill="white"/>
<path d="M1373.87 574.243H1305.65V598.88H1373.87V574.243Z" stroke="#373737" stroke-width="2"/>
<path d="M1410.84 451.056H1397.57V461.478H1410.84V451.056Z" fill="white"/>
<path d="M1409.89 452.004H1398.51V460.532H1409.89V452.004Z" stroke="#373737" stroke-width="2"/>
<path d="M1405.14 445.37H1403.25V452.951H1405.14V445.37Z" fill="#373737"/>
<path d="M1418.4 450.108H1416.52V459.583H1418.4V450.108Z" fill="#373737"/>
<path d="M1416.52 571.4H1402.3V582.771H1416.52V571.4Z" stroke="#373737" stroke-width="2"/>
<path d="M1417.47 576.138H1401.35V578.033H1417.47V576.138Z" fill="#D8D8D8"/>
<path d="M1416.99 576.611H1401.82V577.56H1416.99V576.611Z" stroke="#373737"/>
<path d="M1450.63 576.138H1434.52V578.033H1450.63V576.138Z" fill="#D8D8D8"/>
<path d="M1450.15 576.611H1435V577.56H1450.15V576.611Z" stroke="#373737"/>
<path d="M1449.68 571.4H1435.47V582.771H1449.68V571.4Z" stroke="#373737" stroke-width="2"/>
<path d="M1505.6 461.479H1384.3V599.828H1505.6V461.479Z" fill="white"/>
<path d="M1504.65 462.427H1385.24V598.881H1504.65V462.427Z" stroke="#373737" stroke-width="2"/>
<path d="M1412.72 461.479H1410.84V598.88H1412.72V461.479Z" fill="#373737"/>
<path d="M1440.2 461.479H1438.32V598.88H1440.2V461.479Z" fill="#373737"/>
<path d="M1466.73 561.924H1384.3V563.819H1466.73V561.924Z" fill="#373737"/>
<path d="M1433.57 476.641H1418.41V482.81H1433.57V476.641Z" fill="white"/>
<path d="M1432.62 477.589H1419.35V481.862H1432.62V477.589Z" stroke="#373737" stroke-width="2"/>
<path d="M1433.57 499.384H1418.41V501.278H1433.57V499.384Z" fill="#373737"/>
<path fill-rule="evenodd" clip-rule="evenodd" d="M1420.3 481.379V500.08H1431.19V481.379H1420.3Z" stroke="#373737" stroke-width="2"/>
<path d="M1404.2 476.641H1392.82V482.81H1404.2V476.641Z" fill="white"/>
<path d="M1403.25 477.589H1393.77V481.862H1403.25V477.589Z" stroke="#373737" stroke-width="2"/>
<path d="M1404.2 499.384H1392.82V501.278H1404.2V499.384Z" fill="#373737"/>
<path fill-rule="evenodd" clip-rule="evenodd" d="M1394.72 481.379V500.08H1402.3V481.379H1394.72Z" stroke="#373737" stroke-width="2"/>
<path d="M1433.57 526.863H1418.41V533.032H1433.57V526.863Z" fill="white"/>
<path d="M1432.62 527.81H1419.35V532.085H1432.62V527.81Z" stroke="#373737" stroke-width="2"/>
<path d="M1433.57 549.605H1418.41V551.5H1433.57V549.605Z" fill="#373737"/>
<path fill-rule="evenodd" clip-rule="evenodd" d="M1420.3 531.601V550.303H1431.19V531.601H1420.3Z" stroke="#373737" stroke-width="2"/>
<path d="M1404.2 526.863H1392.82V533.032H1404.2V526.863Z" fill="white"/>
<path d="M1403.25 527.81H1393.77V532.085H1403.25V527.81Z" stroke="#373737" stroke-width="2"/>
<path d="M1404.2 549.605H1392.82V551.5H1404.2V549.605Z" fill="#373737"/>
<path fill-rule="evenodd" clip-rule="evenodd" d="M1394.72 531.601V550.303H1402.3V531.601H1394.72Z" stroke="#373737" stroke-width="2"/>
<path d="M1509.38 459.583H1380.51V468.113H1509.38V459.583Z" fill="white"/>
<path d="M1508.43 460.532H1381.46V467.165H1508.43V460.532Z" stroke="#373737" stroke-width="2"/>
<path d="M1509.38 509.806H1380.51V518.334H1509.38V509.806Z" fill="white"/>
<path d="M1508.43 510.754H1381.46V517.387H1508.43V510.754Z" stroke="#373737" stroke-width="2"/>
<path d="M690.657 597.933H-36.1488V599.828H690.657V597.933Z" fill="#373737"/>
<path d="M738.038 597.933H643.277V599.828H738.038V597.933Z" fill="#373737"/>
<path d="M804.37 597.933H756.989V599.828H804.37V597.933Z" fill="#373737"/>
<path d="M842.272 597.933H823.32V599.828H842.272V597.933Z" fill="#373737"/>
<path d="M870.7 597.933H861.224V599.828H870.7V597.933Z" fill="#373737"/>
<path d="M993.887 597.933H974.935V599.828H993.887V597.933Z" fill="#373737"/>
<path d="M941.771 597.933H899.129V599.828H941.771V597.933Z" fill="#373737"/>
<path d="M1745.33 597.933H1008.1V599.828H1745.33V597.933Z" fill="#373737"/>
<path fill-rule="evenodd" clip-rule="evenodd" d="M1032.29 541.405C1034.88 539.32 1036.53 536.128 1036.53 532.549C1036.53 527.862 1033.69 523.838 1029.64 522.097C1030.98 520.591 1031.79 518.61 1031.79 516.439C1031.79 511.729 1027.97 507.911 1023.26 507.911C1018.55 507.911 1014.73 511.729 1014.73 516.439C1014.73 518.294 1015.33 520.01 1016.33 521.409C1011.63 522.416 1008.1 526.597 1008.1 531.601C1008.1 533.406 1008.56 535.105 1009.37 536.586C1007.99 538.167 1007.15 540.235 1007.15 542.499C1007.15 544.44 1007.77 546.239 1008.82 547.71C1007.77 549.181 1007.15 550.98 1007.15 552.923C1007.15 557.894 1011.18 561.924 1016.16 561.924C1017.74 561.924 1019.22 561.518 1020.51 560.803C1022.36 562.106 1024.62 562.872 1027.05 562.872C1033.33 562.872 1038.42 557.781 1038.42 551.501C1038.42 547.11 1035.94 543.3 1032.29 541.405Z" fill="#10CEA1"/>
<path fill-rule="evenodd" clip-rule="evenodd" d="M1028.5 541.405C1031.08 539.32 1032.74 536.128 1032.74 532.549C1032.74 527.862 1029.9 523.838 1025.85 522.097C1027.19 520.591 1028 518.61 1028 516.439C1028 511.729 1024.18 507.911 1019.47 507.911C1014.76 507.911 1010.94 511.729 1010.94 516.439C1010.94 518.294 1011.54 520.01 1012.54 521.409C1007.84 522.416 1004.31 526.597 1004.31 531.601C1004.31 533.406 1004.77 535.105 1005.58 536.586C1004.2 538.167 1003.36 540.235 1003.36 542.499C1003.36 544.44 1003.98 546.239 1005.02 547.71C1003.98 549.181 1003.36 550.98 1003.36 552.923C1003.36 557.894 1007.39 561.924 1012.36 561.924C1013.94 561.924 1015.43 561.518 1016.72 560.803C1018.57 562.106 1020.83 562.872 1023.26 562.872C1029.54 562.872 1034.63 557.781 1034.63 551.501C1034.63 547.11 1032.14 543.3 1028.5 541.405Z" stroke="#373737" stroke-width="2"/>
<path d="M1019.47 533.496H1017.58V598.881H1019.47V533.496Z" fill="#373737"/>
<path fill-rule="evenodd" clip-rule="evenodd" d="M8.88734 541.405C11.4722 539.32 13.1256 536.128 13.1256 532.549C13.1256 527.862 10.2901 523.838 6.24113 522.097C7.57657 520.591 8.38758 518.61 8.38758 516.439C8.38758 511.729 4.56936 507.911 -0.140764 507.911C-4.85089 507.911 -8.66912 511.729 -8.66912 516.439C-8.66912 518.294 -8.07747 520.01 -7.07254 521.409C-11.776 522.416 -15.3023 526.597 -15.3023 531.601C-15.3023 533.406 -14.8433 535.105 -14.0357 536.586C-15.4147 538.167 -16.2499 540.235 -16.2499 542.499C-16.2499 544.44 -15.6347 546.239 -14.5886 547.71C-15.6347 549.181 -16.2499 550.98 -16.2499 552.923C-16.2499 557.894 -12.2195 561.924 -7.24773 561.924C-5.66798 561.924 -4.18317 561.518 -2.89254 560.803C-1.04241 562.106 1.21417 562.872 3.64962 562.872C9.92974 562.872 15.0208 557.781 15.0208 551.501C15.0208 547.11 12.5316 543.3 8.88734 541.405Z" fill="#10CEA1"/>
<path fill-rule="evenodd" clip-rule="evenodd" d="M5.0973 541.405C7.68198 539.32 9.33552 536.128 9.33552 532.549C9.33552 527.862 6.50008 523.838 2.45109 522.097C3.78654 520.591 4.59755 518.61 4.59755 516.439C4.59755 511.729 0.779193 507.911 -3.93081 507.911C-8.64093 507.911 -12.4592 511.729 -12.4592 516.439C-12.4592 518.294 -11.8675 520.01 -10.8627 521.409C-15.566 522.416 -19.0923 526.597 -19.0923 531.601C-19.0923 533.406 -18.6333 535.105 -17.8257 536.586C-19.2047 538.167 -20.0399 540.235 -20.0399 542.499C-20.0399 544.44 -19.4249 546.239 -18.3788 547.71C-19.4249 549.181 -20.0399 550.98 -20.0399 552.923C-20.0399 557.894 -16.0095 561.924 -11.0378 561.924C-9.45802 561.924 -7.97321 561.518 -6.6827 560.803C-4.83245 562.106 -2.57587 562.872 -0.140427 562.872C6.1397 562.872 11.2307 557.781 11.2307 551.501C11.2307 547.11 8.7416 543.3 5.0973 541.405Z" stroke="#373737" stroke-width="2"/>
<path fill-rule="evenodd" clip-rule="evenodd" d="M1085.3 559.932C1086.79 558.311 1087.7 556.149 1087.7 553.775C1087.7 550.72 1086.19 548.018 1083.88 546.367C1083.59 542.873 1080.66 540.129 1077.09 540.129C1073.94 540.129 1071.29 542.261 1070.5 545.157C1067.27 546.306 1064.96 549.391 1064.96 553.016C1064.96 554.461 1065.32 555.82 1065.97 557.004C1064.87 558.27 1064.2 559.924 1064.2 561.734C1064.2 563.486 1064.82 565.091 1065.86 566.339C1065.77 566.811 1065.72 567.299 1065.72 567.8C1065.72 571.777 1068.94 575.001 1072.92 575.001C1074.17 575.001 1075.34 574.684 1076.36 574.123C1076.85 574.203 1077.34 574.243 1077.84 574.243C1082.87 574.243 1086.94 570.17 1086.94 565.146C1086.94 563.206 1086.33 561.409 1085.3 559.932Z" fill="#10CEA1"/>
<path fill-rule="evenodd" clip-rule="evenodd" d="M1082.27 559.932C1083.76 558.311 1084.67 556.149 1084.67 553.775C1084.67 550.72 1083.16 548.018 1080.85 546.367C1080.55 542.873 1077.62 540.129 1074.05 540.129C1070.91 540.129 1068.26 542.261 1067.47 545.157C1064.24 546.306 1061.92 549.391 1061.92 553.016C1061.92 554.461 1062.29 555.82 1062.94 557.004C1061.83 558.27 1061.17 559.924 1061.17 561.734C1061.17 563.486 1061.79 565.091 1062.83 566.339C1062.73 566.811 1062.68 567.299 1062.68 567.8C1062.68 571.777 1065.91 575.001 1069.88 575.001C1071.13 575.001 1072.31 574.684 1073.33 574.123C1073.81 574.203 1074.31 574.243 1074.81 574.243C1079.84 574.243 1083.91 570.17 1083.91 565.146C1083.91 563.206 1083.3 561.409 1082.27 559.932Z" stroke="#373737" stroke-width="2"/>
<path d="M1074.43 554.533H1072.54V600.018H1074.43V554.533Z" fill="#373737"/>
<path d="M702.976 542.972H701.081V599.828H702.976V542.972Z" fill="#373737"/>
<path fill-rule="evenodd" clip-rule="evenodd" d="M694.553 544.451C693.879 545.868 693.5 547.456 693.5 549.132C693.5 555.151 698.379 560.029 704.398 560.029C710.415 560.029 715.295 555.151 715.295 549.132C715.295 547.672 715.008 546.278 714.486 545.006L704.398 504.122L694.553 544.451Z" fill="#10CEA1"/>
<path fill-rule="evenodd" clip-rule="evenodd" d="M691.71 544.451C691.034 545.868 690.657 547.456 690.657 549.132C690.657 555.151 695.535 560.029 701.554 560.029C707.572 560.029 712.451 555.151 712.451 549.132C712.451 547.672 712.165 546.278 711.643 545.006L701.554 504.122L691.71 544.451Z" stroke="#373737" stroke-width="2" stroke-linejoin="round"/>
<path fill-rule="evenodd" clip-rule="evenodd" d="M664.914 549.72C666.777 547.696 667.914 544.994 667.914 542.025C667.914 538.206 666.033 534.828 663.146 532.766C662.775 528.397 659.111 524.968 654.648 524.968C650.714 524.968 647.402 527.632 646.418 531.253C642.378 532.689 639.486 536.546 639.486 541.077C639.486 542.882 639.946 544.581 640.753 546.062C639.375 547.643 638.539 549.711 638.539 551.975C638.539 554.163 639.32 556.17 640.619 557.73C640.497 558.32 640.434 558.93 640.434 559.556C640.434 564.527 644.465 568.557 649.437 568.557C650.997 568.557 652.467 568.159 653.747 567.461C654.348 567.558 654.966 567.61 655.596 567.61C661.876 567.61 666.967 562.519 666.967 556.239C666.967 553.814 666.207 551.567 664.914 549.72Z" fill="#10CEA1"/>
<path fill-rule="evenodd" clip-rule="evenodd" d="M661.124 549.72C662.986 547.696 664.124 544.994 664.124 542.025C664.124 538.206 662.242 534.828 659.354 532.766C658.985 528.397 655.322 524.968 650.857 524.968C646.924 524.968 643.613 527.632 642.628 531.253C638.589 532.689 635.696 536.546 635.696 541.077C635.696 542.882 636.154 544.581 636.962 546.062C635.584 547.643 634.748 549.711 634.748 551.975C634.748 554.163 635.529 556.17 636.829 557.73C636.708 558.32 636.643 558.93 636.643 559.556C636.643 564.527 640.673 568.557 645.646 568.557C647.208 568.557 648.676 568.159 649.956 567.461C650.558 567.558 651.176 567.61 651.805 567.61C658.085 567.61 663.176 562.519 663.176 556.239C663.176 553.814 662.418 551.567 661.124 549.72Z" stroke="#373737" stroke-width="2"/>
<path d="M650.857 542.972H648.962V599.828H650.857V542.972Z" fill="#373737"/>
<g style="mix-blend-mode:multiply">
<g style="mix-blend-mode:multiply">
<path d="M314.462 517.387H308.776V597.933H314.462V517.387Z" fill="#1290CB"/>
</g>
</g>
<g style="mix-blend-mode:multiply">
<g style="mix-blend-mode:multiply">
<path d="M335.309 497.487H329.623V597.933H335.309V497.487Z" fill="#1290CB"/>
</g>
</g>
<g style="mix-blend-mode:multiply">
<g style="mix-blend-mode:multiply">
<path d="M521.985 493.698H516.299V572.348H521.985V493.698Z" fill="#1290CB"/>
</g>
</g>
<g style="mix-blend-mode:multiply">
<g style="mix-blend-mode:multiply">
<path d="M539.042 569.505H533.357V597.933H539.042V569.505Z" fill="#1290CB"/>
</g>
</g>
<g style="mix-blend-mode:multiply">
<g style="mix-blend-mode:multiply">
<path fill-rule="evenodd" clip-rule="evenodd" d="M347.872 380.972L366.385 397.043H347.872V380.972Z" fill="#1290CB"/>
</g>
</g>
<g style="mix-blend-mode:multiply">
<g style="mix-blend-mode:multiply">
<path d="M1112.34 498.435H1106.65V536.339H1112.34V498.435Z" fill="#1290CB"/>
</g>
</g>
<g style="mix-blend-mode:multiply">
<g style="mix-blend-mode:multiply">
<path d="M1295.23 439.685H1289.53V474.746H1295.23V439.685Z" fill="#1290CB"/>
</g>
</g>
<g style="mix-blend-mode:multiply">
<g style="mix-blend-mode:multiply">
<path d="M1311.33 574.243H1305.65V597.933H1311.33V574.243Z" fill="#1290CB"/>
</g>
</g>
<g style="mix-blend-mode:multiply">
<g style="mix-blend-mode:multiply">
<path d="M143.894 440.632H136.314V488.011H143.894V440.632Z" fill="#1290CB"/>
</g>
</g>
<g style="mix-blend-mode:multiply">
<g style="mix-blend-mode:multiply">
<path d="M51.9772 530.653H44.3965V561.924H51.9772V530.653Z" fill="#1290CB"/>
</g>
</g>
<path d="M1431.77 138.752C1435.95 138.752 1447.59 138.752 1450.77 138.752C1456.4 138.752 1460.96 134.26 1460.96 128.716C1460.96 123.174 1456.4 118.68 1450.77 118.68C1450.51 118.68 1450.25 118.69 1449.99 118.71C1448.99 109.663 1441.22 102.623 1431.77 102.623C1421.94 102.623 1413.91 110.261 1413.47 119.848C1412.04 119.103 1410.42 118.68 1408.7 118.68C1403.08 118.68 1398.51 123.174 1398.51 128.716C1398.51 134.26 1403.08 138.752 1408.7 138.752C1412.9 138.752 1426.32 138.752 1431.77 138.752Z" fill="white"/>
<path fill-rule="evenodd" clip-rule="evenodd" d="M1450.81 117.733C1449.37 108.568 1441.33 101.675 1431.77 101.675C1421.94 101.675 1413.76 108.968 1412.63 118.44C1411.38 117.975 1410.05 117.733 1408.7 117.733C1402.54 117.733 1397.57 122.647 1397.57 128.716C1397.57 134.785 1402.54 139.7 1408.7 139.7H1450.77C1456.92 139.7 1461.91 134.785 1461.91 128.716C1461.91 122.659 1456.94 117.753 1450.81 117.733Z" stroke="#373737" stroke-width="2"/>
<g style="mix-blend-mode:multiply">
<g style="mix-blend-mode:multiply">
<path fill-rule="evenodd" clip-rule="evenodd" d="M1429.87 139.7C1434.05 139.7 1445.7 139.7 1448.89 139.7C1454.51 139.7 1459.06 135.206 1459.06 129.665C1459.06 124.121 1454.51 119.628 1448.89 119.628C1448.62 119.628 1448.35 119.638 1448.1 119.657C1447.1 110.611 1439.32 103.57 1429.87 103.57C1429.87 116.586 1429.87 129.665 1429.87 139.7Z" fill="#1290CB" fill-opacity="0.25"/>
</g>
</g>
<path fill-rule="evenodd" clip-rule="evenodd" d="M1443.91 140.137C1440.62 139.961 1438.09 137.171 1438.27 133.901C1438.44 130.629 1441.24 128.116 1444.53 128.289C1444.58 127.904 1444.57 127.506 1444.59 127.104C1444.8 123.329 1447.49 120.276 1451.03 119.454C1452.3 108.976 1461.35 101.069 1472.04 101.231C1476.33 93.0365 1485.14 87.6458 1495.03 88.1638C1508.52 88.8708 1518.89 100.319 1518.18 113.733C1518.04 116.512 1517.42 119.157 1516.43 121.598C1521.23 122.877 1524.63 127.348 1524.37 132.473C1524.27 134.366 1523.67 136.116 1522.72 137.611C1522.13 138.557 1521.38 139.4 1520.52 140.111C1520.28 140.313 1519.86 140.451 1519.32 140.53C1519.04 140.58 1518.8 140.605 1518.57 140.605C1518.53 140.605 1518.49 140.604 1518.47 140.604C1518.11 140.618 1517.75 140.616 1517.34 140.6C1493.08 140.496 1468.59 140.346 1443.9 140.148L1443.91 140.137Z" fill="white" stroke="#373737" stroke-width="2" stroke-linejoin="round"/>
<path d="M1391.08 139.729H1408.92H1391.08ZM1515.77 140.608H1533.62H1515.77Z" stroke="#373737" stroke-width="2" stroke-linecap="round" stroke-linejoin="round"/>
<path d="M282.891 127.96C298.067 127.96 310.371 115.657 310.371 100.48C310.371 85.3033 298.067 73 282.891 73C267.714 73 255.41 85.3033 255.41 100.48C255.41 115.657 267.714 127.96 282.891 127.96Z" fill="#1290CB"/>
<path fill-rule="evenodd" clip-rule="evenodd" d="M278.914 128.444C278.538 128.414 278.157 128.4 277.774 128.4C269.609 128.4 262.991 136.506 262.991 144.64C266.86 144.64 355.972 144.906 361.541 144.64C361.541 138.59 356.619 133.688 350.549 133.688C349.209 133.688 347.925 133.926 346.739 134.364C344.199 129.9 339.387 126.889 333.871 126.889C332.875 126.889 331.9 126.988 330.96 127.175C329.982 124.697 328.352 122.546 326.277 120.933C327.023 118.775 327.428 116.459 327.428 114.049C327.428 102.368 317.924 92.8996 306.201 92.8996C294.479 92.8996 284.975 102.368 284.975 114.049C284.975 114.966 285.034 115.871 285.148 116.757C281.458 119.366 279.023 123.618 278.914 128.444Z" fill="white" stroke="#373737" stroke-width="2" stroke-linejoin="round"/>
<g style="mix-blend-mode:multiply">
<g style="mix-blend-mode:multiply">
<path fill-rule="evenodd" clip-rule="evenodd" d="M304.019 143.906C328.129 144.335 354.876 144.779 357.768 144.641C357.768 138.925 353.118 134.29 347.38 134.29C346.114 134.29 344.901 134.516 343.78 134.928C341.379 130.711 336.832 127.865 331.618 127.865C330.676 127.865 329.756 127.959 328.866 128.136C327.943 125.793 326.401 123.76 324.442 122.237C325.146 120.197 325.528 118.008 325.528 115.73C325.528 104.691 316.547 95.7422 305.469 95.7422C305.469 108.851 304.019 127.865 304.019 143.906Z" fill="#1290CB" fill-opacity="0.25"/>
</g>
</g>
<path d="M253 144.708H270.844H253ZM357.235 144.708H375.08H357.235Z" stroke="#373737" stroke-width="2" stroke-linecap="round" stroke-linejoin="round"/>
</g>
<defs>
<filter id="filter0_f_17_2" x="1038.7" y="323.606" width="535.605" height="337.968" filterUnits="userSpaceOnUse" color-interpolation-filters="sRGB">
<feFlood flood-opacity="0" result="BackgroundImageFix"/>
<feBlend mode="normal" in="SourceGraphic" in2="BackgroundImageFix" result="shape"/>
<feGaussianBlur stdDeviation="31.735" result="effect1_foregroundBlur_17_2"/>
</filter>
<filter id="filter1_f_17_2" x="167.052" y="325.784" width="501.947" height="319.261" filterUnits="userSpaceOnUse" color-interpolation-filters="sRGB">
<feFlood flood-opacity="0" result="BackgroundImageFix"/>
<feBlend mode="normal" in="SourceGraphic" in2="BackgroundImageFix" result="shape"/>
<feGaussianBlur stdDeviation="23.7" result="effect1_foregroundBlur_17_2"/>
</filter>
<linearGradient id="paint0_linear_17_2" x1="1760.06" y1="400.93" x2="1713.67" y2="400.93" gradientUnits="userSpaceOnUse">
<stop stop-color="#7776AD" stop-opacity="0.219"/>
<stop offset="1" stop-color="#424174"/>
</linearGradient>
<linearGradient id="paint1_linear_17_2" x1="48.9737" y1="400.378" x2="61.9823" y2="347.52" gradientUnits="userSpaceOnUse">
<stop stop-color="#7776AD" stop-opacity="0"/>
<stop offset="1" stop-color="#424174"/>
</linearGradient>
</defs>
</svg>
